STARTFONT 2.1
COMMENT "Generated by fontforge, http://fontforge.sourceforge.net"
FONT -ibm-vio-Medium-R-Normal--8-80-75-75-C-80-ISO10646-1
SIZE 8 75 75
FONTBOUNDINGBOX 8 8 0 -2
STARTPROPERTIES 32
FOUNDRY "ibm"
FAMILY_NAME "vio"
WEIGHT_NAME "Medium"
SLANT "R"
SETWIDTH_NAME "Normal"
ADD_STYLE_NAME ""
PIXEL_SIZE 8
POINT_SIZE 80
RESOLUTION_X 75
RESOLUTION_Y 75
SPACING "C"
AVERAGE_WIDTH 80
CHARSET_REGISTRY "ISO10646"
CHARSET_ENCODING "1"
FONTNAME_REGISTRY ""
CHARSET_COLLECTIONS "ASCII ISOLatin1Encoding ISO8859-2 ISO8859-5 ISO8859-7 ISO8859-9 ISO8859-8 ISO8859-6 ISO8859-4 Symbol ISO10646-1"
FONT_NAME "viomedium"
FACE_NAME "vio medium"
FONT_VERSION "001.000"
FONT_ASCENT 6
FONT_DESCENT 2
UNDERLINE_POSITION -1
UNDERLINE_THICKNESS 1
X_HEIGHT 3
CAP_HEIGHT 5
RAW_ASCENT 750
RAW_DESCENT 250
NORM_SPACE 8
FIGURE_WIDTH 8
AVG_LOWERCASE_WIDTH 80
AVG_UPPERCASE_WIDTH "80"
_XMBDFED_INFO "Edited with xmbdfed 4.7."
ENDPROPERTIES
CHARS 803
STARTCHAR uni0000
ENCODING 0
SWIDTH 960 0
DWIDTH 8 0
BBX 8 8 0 -2
BITMAP
00
00
00
00
00
00
00
00
ENDCHAR
STARTCHAR uni0001
ENCODING 1
SWIDTH 960 0
DWIDTH 8 0
BBX 8 8 0 -2
BITMAP
3E
41
55
41
5D
41
3E
00
ENDCHAR
STARTCHAR uni0002
ENCODING 2
SWIDTH 960 0
DWIDTH 8 0
BBX 8 8 0 -2
BITMAP
3E
7F
6B
7F
63
7F
3E
00
ENDCHAR
STARTCHAR uni0003
ENCODING 3
SWIDTH 960 0
DWIDTH 8 0
BBX 8 8 0 -2
BITMAP
00
22
77
7F
3E
1C
08
00
ENDCHAR
STARTCHAR uni0004
ENCODING 4
SWIDTH 960 0
DWIDTH 8 0
BBX 8 8 0 -2
BITMAP
08
1C
3E
7F
3E
1C
08
00
ENDCHAR
STARTCHAR uni0005
ENCODING 5
SWIDTH 960 0
DWIDTH 8 0
BBX 8 8 0 -2
BITMAP
00
1C
1C
77
77
08
1C
00
ENDCHAR
STARTCHAR uni0006
ENCODING 6
SWIDTH 960 0
DWIDTH 8 0
BBX 8 8 0 -2
BITMAP
08
1C
3E
7F
77
08
1C
00
ENDCHAR
STARTCHAR uni0007
ENCODING 7
SWIDTH 960 0
DWIDTH 8 0
BBX 8 8 0 -2
BITMAP
00
00
18
3C
3C
18
00
00
ENDCHAR
STARTCHAR uni0008
ENCODING 8
SWIDTH 960 0
DWIDTH 8 0
BBX 8 8 0 -2
BITMAP
FF
FF
E7
C3
C3
E7
FF
FF
ENDCHAR
STARTCHAR uni0009
ENCODING 9
SWIDTH 960 0
DWIDTH 8 0
BBX 8 8 0 -2
BITMAP
00
00
18
24
24
18
00
00
ENDCHAR
STARTCHAR uni000A
ENCODING 10
SWIDTH 960 0
DWIDTH 8 0
BBX 8 8 0 -2
BITMAP
FF
FF
E7
DB
DB
E7
FF
FF
ENDCHAR
STARTCHAR uni000B
ENCODING 11
SWIDTH 960 0
DWIDTH 8 0
BBX 8 8 0 -2
BITMAP
0F
03
05
39
44
44
38
00
ENDCHAR
STARTCHAR uni000C
ENCODING 12
SWIDTH 960 0
DWIDTH 8 0
BBX 8 8 0 -2
BITMAP
1C
22
22
1C
08
3E
08
08
ENDCHAR
STARTCHAR uni000D
ENCODING 13
SWIDTH 960 0
DWIDTH 8 0
BBX 8 8 0 -2
BITMAP
08
0C
0A
08
08
18
18
00
ENDCHAR
STARTCHAR uni000E
ENCODING 14
SWIDTH 960 0
DWIDTH 8 0
BBX 8 8 0 -2
BITMAP
3E
3E
22
22
22
66
66
00
ENDCHAR
STARTCHAR uni000F
ENCODING 15
SWIDTH 960 0
DWIDTH 8 0
BBX 8 8 0 -2
BITMAP
49
3E
22
63
22
3E
49
00
ENDCHAR
STARTCHAR uni0010
ENCODING 16
SWIDTH 960 0
DWIDTH 8 0
BBX 8 8 0 -2
BITMAP
00
30
38
3C
38
30
00
00
ENDCHAR
STARTCHAR uni0011
ENCODING 17
SWIDTH 960 0
DWIDTH 8 0
BBX 8 8 0 -2
BITMAP
00
0C
1C
3C
1C
0C
00
00
ENDCHAR
STARTCHAR uni0012
ENCODING 18
SWIDTH 960 0
DWIDTH 8 0
BBX 8 8 0 -2
BITMAP
08
1C
2A
08
08
2A
1C
08
ENDCHAR
STARTCHAR uni0013
ENCODING 19
SWIDTH 960 0
DWIDTH 8 0
BBX 8 8 0 -2
BITMAP
24
24
24
24
24
00
24
00
ENDCHAR
STARTCHAR uni0014
ENCODING 20
SWIDTH 960 0
DWIDTH 8 0
BBX 8 8 0 -2
BITMAP
3E
7A
7A
3A
0A
0A
0A
00
ENDCHAR
STARTCHAR uni0015
ENCODING 21
SWIDTH 960 0
DWIDTH 8 0
BBX 8 8 0 -2
BITMAP
3E
40
7E
42
7E
02
7C
00
ENDCHAR
STARTCHAR uni0016
ENCODING 22
SWIDTH 960 0
DWIDTH 8 0
BBX 8 8 0 -2
BITMAP
00
00
7E
7E
7E
00
00
00
ENDCHAR
STARTCHAR uni0017
ENCODING 23
SWIDTH 960 0
DWIDTH 8 0
BBX 8 8 0 -2
BITMAP
08
1C
2A
08
08
2A
1C
7F
ENDCHAR
STARTCHAR uni0018
ENCODING 24
SWIDTH 960 0
DWIDTH 8 0
BBX 8 8 0 -2
BITMAP
08
1C
2A
08
08
08
08
00
ENDCHAR
STARTCHAR uni0019
ENCODING 25
SWIDTH 960 0
DWIDTH 8 0
BBX 8 8 0 -2
BITMAP
08
08
08
08
2A
1C
08
00
ENDCHAR
STARTCHAR uni001A
ENCODING 26
SWIDTH 960 0
DWIDTH 8 0
BBX 8 8 0 -2
BITMAP
00
08
04
7E
04
08
00
00
ENDCHAR
STARTCHAR uni001B
ENCODING 27
SWIDTH 960 0
DWIDTH 8 0
BBX 8 8 0 -2
BITMAP
00
10
20
7E
20
10
00
00
ENDCHAR
STARTCHAR uni001C
ENCODING 28
SWIDTH 960 0
DWIDTH 8 0
BBX 8 8 0 -2
BITMAP
00
20
20
20
20
3E
00
00
ENDCHAR
STARTCHAR uni001D
ENCODING 29
SWIDTH 960 0
DWIDTH 8 0
BBX 8 8 0 -2
BITMAP
00
24
42
FF
42
24
00
00
ENDCHAR
STARTCHAR uni001E
ENCODING 30
SWIDTH 960 0
DWIDTH 8 0
BBX 8 8 0 -2
BITMAP
00
00
08
1C
3E
3E
00
00
ENDCHAR
STARTCHAR uni001F
ENCODING 31
SWIDTH 960 0
DWIDTH 8 0
BBX 8 8 0 -2
BITMAP
00
00
3E
3E
1C
08
00
00
ENDCHAR
STARTCHAR space
ENCODING 32
SWIDTH 960 0
DWIDTH 8 0
BBX 8 8 0 -2
BITMAP
00
00
00
00
00
00
00
00
ENDCHAR
STARTCHAR exclam
ENCODING 33
SWIDTH 960 0
DWIDTH 8 0
BBX 8 8 0 -2
BITMAP
08
08
08
08
08
00
08
00
ENDCHAR
STARTCHAR quotedbl
ENCODING 34
SWIDTH 960 0
DWIDTH 8 0
BBX 8 8 0 -2
BITMAP
24
24
24
00
00
00
00
00
ENDCHAR
STARTCHAR numbersign
ENCODING 35
SWIDTH 960 0
DWIDTH 8 0
BBX 8 8 0 -2
BITMAP
00
24
7E
24
24
7E
24
00
ENDCHAR
STARTCHAR dollar
ENCODING 36
SWIDTH 960 0
DWIDTH 8 0
BBX 8 8 0 -2
BITMAP
08
3C
42
30
0C
42
3C
10
ENDCHAR
STARTCHAR percent
ENCODING 37
SWIDTH 960 0
DWIDTH 8 0
BBX 8 8 0 -2
BITMAP
00
62
64
08
10
26
46
00
ENDCHAR
STARTCHAR ampersand
ENCODING 38
SWIDTH 960 0
DWIDTH 8 0
BBX 8 8 0 -2
BITMAP
18
24
18
26
44
44
3A
00
ENDCHAR
STARTCHAR quotesingle
ENCODING 39
SWIDTH 960 0
DWIDTH 8 0
BBX 8 8 0 -2
BITMAP
08
08
10
00
00
00
00
00
ENDCHAR
STARTCHAR parenleft
ENCODING 40
SWIDTH 960 0
DWIDTH 8 0
BBX 8 8 0 -2
BITMAP
08
10
10
10
10
10
08
00
ENDCHAR
STARTCHAR parenright
ENCODING 41
SWIDTH 960 0
DWIDTH 8 0
BBX 8 8 0 -2
BITMAP
10
08
08
08
08
08
10
00
ENDCHAR
STARTCHAR asterisk
ENCODING 42
SWIDTH 960 0
DWIDTH 8 0
BBX 8 8 0 -2
BITMAP
00
14
08
3E
08
14
00
00
ENDCHAR
STARTCHAR plus
ENCODING 43
SWIDTH 960 0
DWIDTH 8 0
BBX 8 8 0 -2
BITMAP
00
08
08
3E
08
08
00
00
ENDCHAR
STARTCHAR comma
ENCODING 44
SWIDTH 960 0
DWIDTH 8 0
BBX 8 8 0 -2
BITMAP
00
00
00
00
00
10
10
20
ENDCHAR
STARTCHAR hyphen
ENCODING 45
SWIDTH 960 0
DWIDTH 8 0
BBX 8 8 0 -2
BITMAP
00
00
00
3C
00
00
00
00
ENDCHAR
STARTCHAR period
ENCODING 46
SWIDTH 960 0
DWIDTH 8 0
BBX 8 8 0 -2
BITMAP
00
00
00
00
00
10
10
00
ENDCHAR
STARTCHAR slash
ENCODING 47
SWIDTH 960 0
DWIDTH 8 0
BBX 8 8 0 -2
BITMAP
00
02
04
08
10
20
40
00
ENDCHAR
STARTCHAR zero
ENCODING 48
SWIDTH 960 0
DWIDTH 8 0
BBX 8 8 0 -2
BITMAP
1C
22
22
2A
22
22
1C
00
ENDCHAR
STARTCHAR one
ENCODING 49
SWIDTH 960 0
DWIDTH 8 0
BBX 8 8 0 -2
BITMAP
08
38
08
08
08
08
3E
00
ENDCHAR
STARTCHAR two
ENCODING 50
SWIDTH 960 0
DWIDTH 8 0
BBX 8 8 0 -2
BITMAP
1C
22
02
04
08
10
3E
00
ENDCHAR
STARTCHAR three
ENCODING 51
SWIDTH 960 0
DWIDTH 8 0
BBX 8 8 0 -2
BITMAP
1C
22
02
0C
02
22
1C
00
ENDCHAR
STARTCHAR four
ENCODING 52
SWIDTH 960 0
DWIDTH 8 0
BBX 8 8 0 -2
BITMAP
02
06
0A
12
22
3E
02
00
ENDCHAR
STARTCHAR five
ENCODING 53
SWIDTH 960 0
DWIDTH 8 0
BBX 8 8 0 -2
BITMAP
3E
20
20
3C
02
02
3C
00
ENDCHAR
STARTCHAR six
ENCODING 54
SWIDTH 960 0
DWIDTH 8 0
BBX 8 8 0 -2
BITMAP
1C
20
20
3C
22
22
1C
00
ENDCHAR
STARTCHAR seven
ENCODING 55
SWIDTH 960 0
DWIDTH 8 0
BBX 8 8 0 -2
BITMAP
3E
02
02
04
08
08
08
00
ENDCHAR
STARTCHAR eight
ENCODING 56
SWIDTH 960 0
DWIDTH 8 0
BBX 8 8 0 -2
BITMAP
1C
22
22
1C
22
22
1C
00
ENDCHAR
STARTCHAR nine
ENCODING 57
SWIDTH 960 0
DWIDTH 8 0
BBX 8 8 0 -2
BITMAP
1C
22
22
1E
02
02
1C
00
ENDCHAR
STARTCHAR colon
ENCODING 58
SWIDTH 960 0
DWIDTH 8 0
BBX 8 8 0 -2
BITMAP
00
10
10
00
00
10
10
00
ENDCHAR
STARTCHAR semicolon
ENCODING 59
SWIDTH 960 0
DWIDTH 8 0
BBX 8 8 0 -2
BITMAP
00
10
10
00
00
10
10
20
ENDCHAR
STARTCHAR less
ENCODING 60
SWIDTH 960 0
DWIDTH 8 0
BBX 8 8 0 -2
BITMAP
04
08
10
20
10
08
04
00
ENDCHAR
STARTCHAR equal
ENCODING 61
SWIDTH 960 0
DWIDTH 8 0
BBX 8 8 0 -2
BITMAP
00
00
3C
00
3C
00
00
00
ENDCHAR
STARTCHAR greater
ENCODING 62
SWIDTH 960 0
DWIDTH 8 0
BBX 8 8 0 -2
BITMAP
20
10
08
04
08
10
20
00
ENDCHAR
STARTCHAR question
ENCODING 63
SWIDTH 960 0
DWIDTH 8 0
BBX 8 8 0 -2
BITMAP
1C
22
02
04
08
00
08
00
ENDCHAR
STARTCHAR at
ENCODING 64
SWIDTH 960 0
DWIDTH 8 0
BBX 8 8 0 -2
BITMAP
3E
41
5D
55
5E
40
3E
00
ENDCHAR
STARTCHAR A
ENCODING 65
SWIDTH 960 0
DWIDTH 8 0
BBX 8 8 0 -2
BITMAP
18
24
42
42
7E
42
42
00
ENDCHAR
STARTCHAR B
ENCODING 66
SWIDTH 960 0
DWIDTH 8 0
BBX 8 8 0 -2
BITMAP
7C
42
42
7C
42
42
7C
00
ENDCHAR
STARTCHAR C
ENCODING 67
SWIDTH 960 0
DWIDTH 8 0
BBX 8 8 0 -2
BITMAP
3C
42
40
40
40
42
3C
00
ENDCHAR
STARTCHAR D
ENCODING 68
SWIDTH 960 0
DWIDTH 8 0
BBX 8 8 0 -2
BITMAP
78
44
42
42
42
44
78
00
ENDCHAR
STARTCHAR E
ENCODING 69
SWIDTH 960 0
DWIDTH 8 0
BBX 8 8 0 -2
BITMAP
7E
40
40
7C
40
40
7E
00
ENDCHAR
STARTCHAR F
ENCODING 70
SWIDTH 960 0
DWIDTH 8 0
BBX 8 8 0 -2
BITMAP
7E
40
40
7C
40
40
40
00
ENDCHAR
STARTCHAR G
ENCODING 71
SWIDTH 960 0
DWIDTH 8 0
BBX 8 8 0 -2
BITMAP
3C
42
40
4E
42
42
3E
00
ENDCHAR
STARTCHAR H
ENCODING 72
SWIDTH 960 0
DWIDTH 8 0
BBX 8 8 0 -2
BITMAP
42
42
42
7E
42
42
42
00
ENDCHAR
STARTCHAR I
ENCODING 73
SWIDTH 960 0
DWIDTH 8 0
BBX 8 8 0 -2
BITMAP
3E
08
08
08
08
08
3E
00
ENDCHAR
STARTCHAR J
ENCODING 74
SWIDTH 960 0
DWIDTH 8 0
BBX 8 8 0 -2
BITMAP
1E
04
04
04
04
44
38
00
ENDCHAR
STARTCHAR K
ENCODING 75
SWIDTH 960 0
DWIDTH 8 0
BBX 8 8 0 -2
BITMAP
42
44
48
70
48
44
42
00
ENDCHAR
STARTCHAR L
ENCODING 76
SWIDTH 960 0
DWIDTH 8 0
BBX 8 8 0 -2
BITMAP
40
40
40
40
40
40
7E
00
ENDCHAR
STARTCHAR M
ENCODING 77
SWIDTH 960 0
DWIDTH 8 0
BBX 8 8 0 -2
BITMAP
41
63
55
49
41
41
41
00
ENDCHAR
STARTCHAR N
ENCODING 78
SWIDTH 960 0
DWIDTH 8 0
BBX 8 8 0 -2
BITMAP
42
62
52
4A
46
42
42
00
ENDCHAR
STARTCHAR O
ENCODING 79
SWIDTH 960 0
DWIDTH 8 0
BBX 8 8 0 -2
BITMAP
3C
42
42
42
42
42
3C
00
ENDCHAR
STARTCHAR P
ENCODING 80
SWIDTH 960 0
DWIDTH 8 0
BBX 8 8 0 -2
BITMAP
7C
42
42
42
7C
40
40
00
ENDCHAR
STARTCHAR Q
ENCODING 81
SWIDTH 960 0
DWIDTH 8 0
BBX 8 8 0 -2
BITMAP
3C
42
42
42
4A
4A
3C
04
ENDCHAR
STARTCHAR R
ENCODING 82
SWIDTH 960 0
DWIDTH 8 0
BBX 8 8 0 -2
BITMAP
7C
42
42
7C
42
42
42
00
ENDCHAR
STARTCHAR S
ENCODING 83
SWIDTH 960 0
DWIDTH 8 0
BBX 8 8 0 -2
BITMAP
3C
42
40
3C
02
42
3C
00
ENDCHAR
STARTCHAR T
ENCODING 84
SWIDTH 960 0
DWIDTH 8 0
BBX 8 8 0 -2
BITMAP
3E
08
08
08
08
08
08
00
ENDCHAR
STARTCHAR U
ENCODING 85
SWIDTH 960 0
DWIDTH 8 0
BBX 8 8 0 -2
BITMAP
42
42
42
42
42
42
3C
00
ENDCHAR
STARTCHAR V
ENCODING 86
SWIDTH 960 0
DWIDTH 8 0
BBX 8 8 0 -2
BITMAP
41
41
41
41
22
14
08
00
ENDCHAR
STARTCHAR W
ENCODING 87
SWIDTH 960 0
DWIDTH 8 0
BBX 8 8 0 -2
BITMAP
41
41
49
49
49
49
36
00
ENDCHAR
STARTCHAR X
ENCODING 88
SWIDTH 960 0
DWIDTH 8 0
BBX 8 8 0 -2
BITMAP
42
42
24
18
24
42
42
00
ENDCHAR
STARTCHAR Y
ENCODING 89
SWIDTH 960 0
DWIDTH 8 0
BBX 8 8 0 -2
BITMAP
41
41
22
14
08
08
08
00
ENDCHAR
STARTCHAR Z
ENCODING 90
SWIDTH 960 0
DWIDTH 8 0
BBX 8 8 0 -2
BITMAP
7E
04
08
10
20
40
7E
00
ENDCHAR
STARTCHAR bracketleft
ENCODING 91
SWIDTH 960 0
DWIDTH 8 0
BBX 8 8 0 -2
BITMAP
1C
10
10
10
10
10
1C
00
ENDCHAR
STARTCHAR backslash
ENCODING 92
SWIDTH 960 0
DWIDTH 8 0
BBX 8 8 0 -2
BITMAP
00
40
20
10
08
04
02
00
ENDCHAR
STARTCHAR bracketright
ENCODING 93
SWIDTH 960 0
DWIDTH 8 0
BBX 8 8 0 -2
BITMAP
38
08
08
08
08
08
38
00
ENDCHAR
STARTCHAR asciicircum
ENCODING 94
SWIDTH 960 0
DWIDTH 8 0
BBX 8 8 0 -2
BITMAP
08
14
22
00
00
00
00
00
ENDCHAR
STARTCHAR underscore
ENCODING 95
SWIDTH 960 0
DWIDTH 8 0
BBX 8 8 0 -2
BITMAP
00
00
00
00
00
00
00
FF
ENDCHAR
STARTCHAR grave
ENCODING 96
SWIDTH 960 0
DWIDTH 8 0
BBX 8 8 0 -2
BITMAP
10
08
04
00
00
00
00
00
ENDCHAR
STARTCHAR a
ENCODING 97
SWIDTH 960 0
DWIDTH 8 0
BBX 8 8 0 -2
BITMAP
00
00
3C
02
3E
42
3E
00
ENDCHAR
STARTCHAR b
ENCODING 98
SWIDTH 960 0
DWIDTH 8 0
BBX 8 8 0 -2
BITMAP
40
40
5C
62
42
42
7C
00
ENDCHAR
STARTCHAR c
ENCODING 99
SWIDTH 960 0
DWIDTH 8 0
BBX 8 8 0 -2
BITMAP
00
00
3C
42
40
40
3E
00
ENDCHAR
STARTCHAR d
ENCODING 100
SWIDTH 960 0
DWIDTH 8 0
BBX 8 8 0 -2
BITMAP
02
02
3A
46
42
42
3E
00
ENDCHAR
STARTCHAR e
ENCODING 101
SWIDTH 960 0
DWIDTH 8 0
BBX 8 8 0 -2
BITMAP
00
00
3C
42
7E
40
3E
00
ENDCHAR
STARTCHAR f
ENCODING 102
SWIDTH 960 0
DWIDTH 8 0
BBX 8 8 0 -2
BITMAP
0E
10
10
3C
10
10
10
00
ENDCHAR
STARTCHAR g
ENCODING 103
SWIDTH 960 0
DWIDTH 8 0
BBX 8 8 0 -2
BITMAP
00
00
3E
42
42
3E
02
3C
ENDCHAR
STARTCHAR h
ENCODING 104
SWIDTH 960 0
DWIDTH 8 0
BBX 8 8 0 -2
BITMAP
40
40
5C
62
42
42
42
00
ENDCHAR
STARTCHAR i
ENCODING 105
SWIDTH 960 0
DWIDTH 8 0
BBX 8 8 0 -2
BITMAP
18
00
38
08
08
08
3E
00
ENDCHAR
STARTCHAR j
ENCODING 106
SWIDTH 960 0
DWIDTH 8 0
BBX 8 8 0 -2
BITMAP
0C
00
1C
04
04
04
04
38
ENDCHAR
STARTCHAR k
ENCODING 107
SWIDTH 960 0
DWIDTH 8 0
BBX 8 8 0 -2
BITMAP
40
40
42
44
78
44
42
00
ENDCHAR
STARTCHAR l
ENCODING 108
SWIDTH 960 0
DWIDTH 8 0
BBX 8 8 0 -2
BITMAP
30
10
10
10
10
10
0C
00
ENDCHAR
STARTCHAR m
ENCODING 109
SWIDTH 960 0
DWIDTH 8 0
BBX 8 8 0 -2
BITMAP
00
00
76
49
49
49
41
00
ENDCHAR
STARTCHAR n
ENCODING 110
SWIDTH 960 0
DWIDTH 8 0
BBX 8 8 0 -2
BITMAP
00
00
5C
62
42
42
42
00
ENDCHAR
STARTCHAR o
ENCODING 111
SWIDTH 960 0
DWIDTH 8 0
BBX 8 8 0 -2
BITMAP
00
00
3C
42
42
42
3C
00
ENDCHAR
STARTCHAR p
ENCODING 112
SWIDTH 960 0
DWIDTH 8 0
BBX 8 8 0 -2
BITMAP
00
00
7C
42
42
7C
40
40
ENDCHAR
STARTCHAR q
ENCODING 113
SWIDTH 960 0
DWIDTH 8 0
BBX 8 8 0 -2
BITMAP
00
00
3E
42
42
3E
02
02
ENDCHAR
STARTCHAR r
ENCODING 114
SWIDTH 960 0
DWIDTH 8 0
BBX 8 8 0 -2
BITMAP
00
00
5C
62
40
40
40
00
ENDCHAR
STARTCHAR s
ENCODING 115
SWIDTH 960 0
DWIDTH 8 0
BBX 8 8 0 -2
BITMAP
00
00
3C
40
3C
02
7C
00
ENDCHAR
STARTCHAR t
ENCODING 116
SWIDTH 960 0
DWIDTH 8 0
BBX 8 8 0 -2
BITMAP
10
10
3C
10
10
10
0C
00
ENDCHAR
STARTCHAR u
ENCODING 117
SWIDTH 960 0
DWIDTH 8 0
BBX 8 8 0 -2
BITMAP
00
00
42
42
42
46
3A
00
ENDCHAR
STARTCHAR v
ENCODING 118
SWIDTH 960 0
DWIDTH 8 0
BBX 8 8 0 -2
BITMAP
00
00
41
41
22
14
08
00
ENDCHAR
STARTCHAR w
ENCODING 119
SWIDTH 960 0
DWIDTH 8 0
BBX 8 8 0 -2
BITMAP
00
00
41
49
49
49
36
00
ENDCHAR
STARTCHAR x
ENCODING 120
SWIDTH 960 0
DWIDTH 8 0
BBX 8 8 0 -2
BITMAP
00
00
42
24
18
24
42
00
ENDCHAR
STARTCHAR y
ENCODING 121
SWIDTH 960 0
DWIDTH 8 0
BBX 8 8 0 -2
BITMAP
00
00
42
42
42
3E
02
3C
ENDCHAR
STARTCHAR z
ENCODING 122
SWIDTH 960 0
DWIDTH 8 0
BBX 8 8 0 -2
BITMAP
00
00
7E
04
18
20
7E
00
ENDCHAR
STARTCHAR braceleft
ENCODING 123
SWIDTH 960 0
DWIDTH 8 0
BBX 8 8 0 -2
BITMAP
0C
10
10
60
10
10
0C
00
ENDCHAR
STARTCHAR bar
ENCODING 124
SWIDTH 960 0
DWIDTH 8 0
BBX 8 8 0 -2
BITMAP
08
08
08
08
08
08
08
08
ENDCHAR
STARTCHAR braceright
ENCODING 125
SWIDTH 960 0
DWIDTH 8 0
BBX 8 8 0 -2
BITMAP
30
08
08
06
08
08
30
00
ENDCHAR
STARTCHAR asciitilde
ENCODING 126
SWIDTH 960 0
DWIDTH 8 0
BBX 8 8 0 -2
BITMAP
32
4C
00
00
00
00
00
00
ENDCHAR
STARTCHAR uni007F
ENCODING 127
SWIDTH 960 0
DWIDTH 8 0
BBX 8 8 0 -2
BITMAP
00
00
00
00
00
00
00
00
ENDCHAR
STARTCHAR uni00A0
ENCODING 160
SWIDTH 960 0
DWIDTH 8 0
BBX 8 8 0 -2
BITMAP
00
00
00
00
00
00
00
00
ENDCHAR
STARTCHAR exclamdown
ENCODING 161
SWIDTH 960 0
DWIDTH 8 0
BBX 8 8 0 -2
BITMAP
08
00
08
08
08
08
08
00
ENDCHAR
STARTCHAR cent
ENCODING 162
SWIDTH 960 0
DWIDTH 8 0
BBX 8 8 0 -2
BITMAP
08
3E
48
48
48
3E
08
00
ENDCHAR
STARTCHAR sterling
ENCODING 163
SWIDTH 960 0
DWIDTH 8 0
BBX 8 8 0 -2
BITMAP
18
24
20
78
20
32
6C
00
ENDCHAR
STARTCHAR currency
ENCODING 164
SWIDTH 960 0
DWIDTH 8 0
BBX 8 8 0 -2
BITMAP
00
42
3C
42
42
3C
42
00
ENDCHAR
STARTCHAR yen
ENCODING 165
SWIDTH 960 0
DWIDTH 8 0
BBX 8 8 0 -2
BITMAP
41
22
14
08
3E
08
08
00
ENDCHAR
STARTCHAR brokenbar
ENCODING 166
SWIDTH 960 0
DWIDTH 8 0
BBX 8 8 0 -2
BITMAP
08
08
08
00
08
08
08
00
ENDCHAR
STARTCHAR section
ENCODING 167
SWIDTH 960 0
DWIDTH 8 0
BBX 8 8 0 -2
BITMAP
3E
40
7E
42
7E
02
7C
00
ENDCHAR
STARTCHAR dieresis
ENCODING 168
SWIDTH 960 0
DWIDTH 8 0
BBX 8 8 0 -2
BITMAP
24
24
00
00
00
00
00
00
ENDCHAR
STARTCHAR copyright
ENCODING 169
SWIDTH 960 0
DWIDTH 8 0
BBX 8 8 0 -2
BITMAP
3C
42
9D
A1
A1
9D
42
3C
ENDCHAR
STARTCHAR ordfeminine
ENCODING 170
SWIDTH 960 0
DWIDTH 8 0
BBX 8 8 0 -2
BITMAP
38
04
3C
44
3C
00
7C
00
ENDCHAR
STARTCHAR guillemotleft
ENCODING 171
SWIDTH 960 0
DWIDTH 8 0
BBX 8 8 0 -2
BITMAP
00
00
12
24
48
24
12
00
ENDCHAR
STARTCHAR logicalnot
ENCODING 172
SWIDTH 960 0
DWIDTH 8 0
BBX 8 8 0 -2
BITMAP
00
00
3E
02
02
02
00
00
ENDCHAR
STARTCHAR uni00AD
ENCODING 173
SWIDTH 960 0
DWIDTH 8 0
BBX 8 8 0 -2
BITMAP
00
00
00
3C
00
00
00
00
ENDCHAR
STARTCHAR registered
ENCODING 174
SWIDTH 960 0
DWIDTH 8 0
BBX 8 8 0 -2
BITMAP
3C
42
B9
A5
B9
A5
42
3C
ENDCHAR
STARTCHAR macron
ENCODING 175
SWIDTH 960 0
DWIDTH 8 0
BBX 8 8 0 -2
BITMAP
7E
00
00
00
00
00
00
00
ENDCHAR
STARTCHAR degree
ENCODING 176
SWIDTH 960 0
DWIDTH 8 0
BBX 8 8 0 -2
BITMAP
18
24
24
18
00
00
00
00
ENDCHAR
STARTCHAR plusminus
ENCODING 177
SWIDTH 960 0
DWIDTH 8 0
BBX 8 8 0 -2
BITMAP
08
08
3E
08
08
00
3E
00
ENDCHAR
STARTCHAR uni00B2
ENCODING 178
SWIDTH 960 0
DWIDTH 8 0
BBX 8 8 0 -2
BITMAP
30
08
08
10
38
00
00
00
ENDCHAR
STARTCHAR uni00B3
ENCODING 179
SWIDTH 960 0
DWIDTH 8 0
BBX 8 8 0 -2
BITMAP
38
08
18
08
38
00
00
00
ENDCHAR
STARTCHAR acute
ENCODING 180
SWIDTH 960 0
DWIDTH 8 0
BBX 8 8 0 -2
BITMAP
04
08
10
00
00
00
00
00
ENDCHAR
STARTCHAR uni00B5
ENCODING 181
SWIDTH 960 0
DWIDTH 8 0
BBX 8 8 0 -2
BITMAP
00
00
44
44
44
44
7A
40
ENDCHAR
STARTCHAR paragraph
ENCODING 182
SWIDTH 960 0
DWIDTH 8 0
BBX 8 8 0 -2
BITMAP
3E
7A
7A
3A
0A
0A
0A
00
ENDCHAR
STARTCHAR periodcentered
ENCODING 183
SWIDTH 960 0
DWIDTH 8 0
BBX 8 8 0 -2
BITMAP
00
00
00
10
10
00
00
00
ENDCHAR
STARTCHAR cedilla
ENCODING 184
SWIDTH 960 0
DWIDTH 8 0
BBX 8 8 0 -2
BITMAP
00
00
00
00
00
00
08
18
ENDCHAR
STARTCHAR uni00B9
ENCODING 185
SWIDTH 960 0
DWIDTH 8 0
BBX 8 8 0 -2
BITMAP
10
30
10
10
10
00
00
00
ENDCHAR
STARTCHAR ordmasculine
ENCODING 186
SWIDTH 960 0
DWIDTH 8 0
BBX 8 8 0 -2
BITMAP
38
44
44
44
38
00
7C
00
ENDCHAR
STARTCHAR guillemotright
ENCODING 187
SWIDTH 960 0
DWIDTH 8 0
BBX 8 8 0 -2
BITMAP
00
00
48
24
12
24
48
00
ENDCHAR
STARTCHAR onequarter
ENCODING 188
SWIDTH 960 0
DWIDTH 8 0
BBX 8 8 0 -2
BITMAP
40
44
48
12
26
4A
1E
02
ENDCHAR
STARTCHAR onehalf
ENCODING 189
SWIDTH 960 0
DWIDTH 8 0
BBX 8 8 0 -2
BITMAP
40
44
48
10
2E
42
04
0E
ENDCHAR
STARTCHAR threequarters
ENCODING 190
SWIDTH 960 0
DWIDTH 8 0
BBX 8 8 0 -2
BITMAP
70
10
72
14
7A
16
2F
02
ENDCHAR
STARTCHAR questiondown
ENCODING 191
SWIDTH 960 0
DWIDTH 8 0
BBX 8 8 0 -2
BITMAP
08
00
08
10
20
22
1C
00
ENDCHAR
STARTCHAR Agrave
ENCODING 192
SWIDTH 960 0
DWIDTH 8 0
BBX 8 8 0 -2
BITMAP
20
10
3C
42
7E
42
42
00
ENDCHAR
STARTCHAR Aacute
ENCODING 193
SWIDTH 960 0
DWIDTH 8 0
BBX 8 8 0 -2
BITMAP
08
10
3C
42
7E
42
42
00
ENDCHAR
STARTCHAR Acircumflex
ENCODING 194
SWIDTH 960 0
DWIDTH 8 0
BBX 8 8 0 -2
BITMAP
10
28
3C
42
7E
42
42
00
ENDCHAR
STARTCHAR Atilde
ENCODING 195
SWIDTH 960 0
DWIDTH 8 0
BBX 8 8 0 -2
BITMAP
32
4C
3C
42
7E
42
42
00
ENDCHAR
STARTCHAR Adieresis
ENCODING 196
SWIDTH 960 0
DWIDTH 8 0
BBX 8 8 0 -2
BITMAP
42
18
24
42
7E
42
42
00
ENDCHAR
STARTCHAR Aring
ENCODING 197
SWIDTH 960 0
DWIDTH 8 0
BBX 8 8 0 -2
BITMAP
18
24
18
24
42
7E
42
00
ENDCHAR
STARTCHAR AE
ENCODING 198
SWIDTH 960 0
DWIDTH 8 0
BBX 8 8 0 -2
BITMAP
3E
48
48
7E
48
48
4E
00
ENDCHAR
STARTCHAR Ccedilla
ENCODING 199
SWIDTH 960 0
DWIDTH 8 0
BBX 8 8 0 -2
BITMAP
3C
42
40
40
42
3C
08
18
ENDCHAR
STARTCHAR Egrave
ENCODING 200
SWIDTH 960 0
DWIDTH 8 0
BBX 8 8 0 -2
BITMAP
10
08
7E
40
7C
40
7E
00
ENDCHAR
STARTCHAR Eacute
ENCODING 201
SWIDTH 960 0
DWIDTH 8 0
BBX 8 8 0 -2
BITMAP
08
10
7E
40
7C
40
7E
00
ENDCHAR
STARTCHAR Ecircumflex
ENCODING 202
SWIDTH 960 0
DWIDTH 8 0
BBX 8 8 0 -2
BITMAP
08
14
7E
40
7C
40
7E
00
ENDCHAR
STARTCHAR Edieresis
ENCODING 203
SWIDTH 960 0
DWIDTH 8 0
BBX 8 8 0 -2
BITMAP
24
00
7E
40
7C
40
7E
00
ENDCHAR
STARTCHAR Igrave
ENCODING 204
SWIDTH 960 0
DWIDTH 8 0
BBX 8 8 0 -2
BITMAP
10
08
3E
08
08
08
3E
00
ENDCHAR
STARTCHAR Iacute
ENCODING 205
SWIDTH 960 0
DWIDTH 8 0
BBX 8 8 0 -2
BITMAP
04
08
3E
08
08
08
3E
00
ENDCHAR
STARTCHAR Icircumflex
ENCODING 206
SWIDTH 960 0
DWIDTH 8 0
BBX 8 8 0 -2
BITMAP
08
14
3E
08
08
08
3E
00
ENDCHAR
STARTCHAR Idieresis
ENCODING 207
SWIDTH 960 0
DWIDTH 8 0
BBX 8 8 0 -2
BITMAP
22
00
3E
08
08
08
3E
00
ENDCHAR
STARTCHAR Eth
ENCODING 208
SWIDTH 960 0
DWIDTH 8 0
BBX 8 8 0 -2
BITMAP
78
44
42
72
42
44
78
00
ENDCHAR
STARTCHAR Ntilde
ENCODING 209
SWIDTH 960 0
DWIDTH 8 0
BBX 8 8 0 -2
BITMAP
32
4C
62
52
4A
46
42
00
ENDCHAR
STARTCHAR Ograve
ENCODING 210
SWIDTH 960 0
DWIDTH 8 0
BBX 8 8 0 -2
BITMAP
20
10
3C
42
42
42
3C
00
ENDCHAR
STARTCHAR Oacute
ENCODING 211
SWIDTH 960 0
DWIDTH 8 0
BBX 8 8 0 -2
BITMAP
08
10
3C
42
42
42
3C
00
ENDCHAR
STARTCHAR Ocircumflex
ENCODING 212
SWIDTH 960 0
DWIDTH 8 0
BBX 8 8 0 -2
BITMAP
10
28
3C
42
42
42
3C
00
ENDCHAR
STARTCHAR Otilde
ENCODING 213
SWIDTH 960 0
DWIDTH 8 0
BBX 8 8 0 -2
BITMAP
32
4C
3C
42
42
42
3C
00
ENDCHAR
STARTCHAR Odieresis
ENCODING 214
SWIDTH 960 0
DWIDTH 8 0
BBX 8 8 0 -2
BITMAP
24
00
3C
42
42
42
3C
00
ENDCHAR
STARTCHAR multiply
ENCODING 215
SWIDTH 960 0
DWIDTH 8 0
BBX 8 8 0 -2
BITMAP
00
00
44
28
10
28
44
00
ENDCHAR
STARTCHAR Oslash
ENCODING 216
SWIDTH 960 0
DWIDTH 8 0
BBX 8 8 0 -2
BITMAP
3C
46
4A
52
62
42
3C
00
ENDCHAR
STARTCHAR Ugrave
ENCODING 217
SWIDTH 960 0
DWIDTH 8 0
BBX 8 8 0 -2
BITMAP
10
08
42
42
42
42
3C
00
ENDCHAR
STARTCHAR Uacute
ENCODING 218
SWIDTH 960 0
DWIDTH 8 0
BBX 8 8 0 -2
BITMAP
08
10
42
42
42
42
3C
00
ENDCHAR
STARTCHAR Ucircumflex
ENCODING 219
SWIDTH 960 0
DWIDTH 8 0
BBX 8 8 0 -2
BITMAP
10
28
42
42
42
42
3C
00
ENDCHAR
STARTCHAR Udieresis
ENCODING 220
SWIDTH 960 0
DWIDTH 8 0
BBX 8 8 0 -2
BITMAP
24
00
42
42
42
42
3C
00
ENDCHAR
STARTCHAR Yacute
ENCODING 221
SWIDTH 960 0
DWIDTH 8 0
BBX 8 8 0 -2
BITMAP
04
08
41
22
14
08
08
00
ENDCHAR
STARTCHAR Thorn
ENCODING 222
SWIDTH 960 0
DWIDTH 8 0
BBX 8 8 0 -2
BITMAP
40
7C
42
42
42
7C
40
00
ENDCHAR
STARTCHAR germandbls
ENCODING 223
SWIDTH 960 0
DWIDTH 8 0
BBX 8 8 0 -2
BITMAP
38
44
44
5C
42
42
5C
40
ENDCHAR
STARTCHAR agrave
ENCODING 224
SWIDTH 960 0
DWIDTH 8 0
BBX 8 8 0 -2
BITMAP
10
08
3C
02
3E
42
3E
00
ENDCHAR
STARTCHAR aacute
ENCODING 225
SWIDTH 960 0
DWIDTH 8 0
BBX 8 8 0 -2
BITMAP
04
08
3C
02
3E
42
3E
00
ENDCHAR
STARTCHAR acircumflex
ENCODING 226
SWIDTH 960 0
DWIDTH 8 0
BBX 8 8 0 -2
BITMAP
08
14
3C
02
3E
42
3E
00
ENDCHAR
STARTCHAR atilde
ENCODING 227
SWIDTH 960 0
DWIDTH 8 0
BBX 8 8 0 -2
BITMAP
32
4C
3C
02
3E
42
3E
00
ENDCHAR
STARTCHAR adieresis
ENCODING 228
SWIDTH 960 0
DWIDTH 8 0
BBX 8 8 0 -2
BITMAP
24
00
3C
02
3E
42
3E
00
ENDCHAR
STARTCHAR aring
ENCODING 229
SWIDTH 960 0
DWIDTH 8 0
BBX 8 8 0 -2
BITMAP
18
24
3C
02
3E
42
3E
00
ENDCHAR
STARTCHAR ae
ENCODING 230
SWIDTH 960 0
DWIDTH 8 0
BBX 8 8 0 -2
BITMAP
00
00
3E
09
3F
48
7F
00
ENDCHAR
STARTCHAR ccedilla
ENCODING 231
SWIDTH 960 0
DWIDTH 8 0
BBX 8 8 0 -2
BITMAP
00
00
3E
40
40
3E
08
18
ENDCHAR
STARTCHAR egrave
ENCODING 232
SWIDTH 960 0
DWIDTH 8 0
BBX 8 8 0 -2
BITMAP
10
08
3C
42
7E
40
3E
00
ENDCHAR
STARTCHAR eacute
ENCODING 233
SWIDTH 960 0
DWIDTH 8 0
BBX 8 8 0 -2
BITMAP
08
10
3C
42
7E
40
3E
00
ENDCHAR
STARTCHAR ecircumflex
ENCODING 234
SWIDTH 960 0
DWIDTH 8 0
BBX 8 8 0 -2
BITMAP
10
28
3C
42
7E
40
3E
00
ENDCHAR
STARTCHAR edieresis
ENCODING 235
SWIDTH 960 0
DWIDTH 8 0
BBX 8 8 0 -2
BITMAP
24
00
3C
42
7E
40
3E
00
ENDCHAR
STARTCHAR igrave
ENCODING 236
SWIDTH 960 0
DWIDTH 8 0
BBX 8 8 0 -2
BITMAP
08
04
00
38
08
08
3E
00
ENDCHAR
STARTCHAR iacute
ENCODING 237
SWIDTH 960 0
DWIDTH 8 0
BBX 8 8 0 -2
BITMAP
10
20
38
08
08
08
3E
00
ENDCHAR
STARTCHAR icircumflex
ENCODING 238
SWIDTH 960 0
DWIDTH 8 0
BBX 8 8 0 -2
BITMAP
10
28
00
38
08
08
3E
00
ENDCHAR
STARTCHAR idieresis
ENCODING 239
SWIDTH 960 0
DWIDTH 8 0
BBX 8 8 0 -2
BITMAP
24
00
38
08
08
08
3E
00
ENDCHAR
STARTCHAR eth
ENCODING 240
SWIDTH 960 0
DWIDTH 8 0
BBX 8 8 0 -2
BITMAP
28
70
08
3C
42
42
3C
00
ENDCHAR
STARTCHAR ntilde
ENCODING 241
SWIDTH 960 0
DWIDTH 8 0
BBX 8 8 0 -2
BITMAP
32
4C
00
5C
62
42
42
00
ENDCHAR
STARTCHAR ograve
ENCODING 242
SWIDTH 960 0
DWIDTH 8 0
BBX 8 8 0 -2
BITMAP
20
10
00
3C
42
42
3C
00
ENDCHAR
STARTCHAR oacute
ENCODING 243
SWIDTH 960 0
DWIDTH 8 0
BBX 8 8 0 -2
BITMAP
08
10
00
3C
42
42
3C
00
ENDCHAR
STARTCHAR ocircumflex
ENCODING 244
SWIDTH 960 0
DWIDTH 8 0
BBX 8 8 0 -2
BITMAP
10
28
00
3C
42
42
3C
00
ENDCHAR
STARTCHAR otilde
ENCODING 245
SWIDTH 960 0
DWIDTH 8 0
BBX 8 8 0 -2
BITMAP
32
4C
00
3C
42
42
3C
00
ENDCHAR
STARTCHAR odieresis
ENCODING 246
SWIDTH 960 0
DWIDTH 8 0
BBX 8 8 0 -2
BITMAP
00
24
00
3C
42
42
3C
00
ENDCHAR
STARTCHAR divide
ENCODING 247
SWIDTH 960 0
DWIDTH 8 0
BBX 8 8 0 -2
BITMAP
00
08
00
3E
00
08
00
00
ENDCHAR
STARTCHAR oslash
ENCODING 248
SWIDTH 960 0
DWIDTH 8 0
BBX 8 8 0 -2
BITMAP
00
00
3C
4A
52
62
3C
00
ENDCHAR
STARTCHAR ugrave
ENCODING 249
SWIDTH 960 0
DWIDTH 8 0
BBX 8 8 0 -2
BITMAP
10
08
00
42
42
46
3A
00
ENDCHAR
STARTCHAR uacute
ENCODING 250
SWIDTH 960 0
DWIDTH 8 0
BBX 8 8 0 -2
BITMAP
08
10
00
42
42
46
3A
00
ENDCHAR
STARTCHAR ucircumflex
ENCODING 251
SWIDTH 960 0
DWIDTH 8 0
BBX 8 8 0 -2
BITMAP
10
28
00
42
42
46
3A
00
ENDCHAR
STARTCHAR udieresis
ENCODING 252
SWIDTH 960 0
DWIDTH 8 0
BBX 8 8 0 -2
BITMAP
24
00
42
42
42
46
3A
00
ENDCHAR
STARTCHAR yacute
ENCODING 253
SWIDTH 960 0
DWIDTH 8 0
BBX 8 8 0 -2
BITMAP
08
10
42
42
42
3E
02
3C
ENDCHAR
STARTCHAR thorn
ENCODING 254
SWIDTH 960 0
DWIDTH 8 0
BBX 8 8 0 -2
BITMAP
40
40
7C
42
42
42
7C
40
ENDCHAR
STARTCHAR ydieresis
ENCODING 255
SWIDTH 960 0
DWIDTH 8 0
BBX 8 8 0 -2
BITMAP
00
24
00
42
42
3E
02
3C
ENDCHAR
STARTCHAR Amacron
ENCODING 256
SWIDTH 960 0
DWIDTH 8 0
BBX 8 8 0 -2
BITMAP
7E
00
3C
42
7E
42
42
00
ENDCHAR
STARTCHAR amacron
ENCODING 257
SWIDTH 960 0
DWIDTH 8 0
BBX 8 8 0 -2
BITMAP
7E
00
3C
02
3E
42
3E
00
ENDCHAR
STARTCHAR Abreve
ENCODING 258
SWIDTH 960 0
DWIDTH 8 0
BBX 8 8 0 -2
BITMAP
24
18
3C
42
7E
42
42
00
ENDCHAR
STARTCHAR abreve
ENCODING 259
SWIDTH 960 0
DWIDTH 8 0
BBX 8 8 0 -2
BITMAP
24
18
3C
02
3E
42
3E
00
ENDCHAR
STARTCHAR Aogonek
ENCODING 260
SWIDTH 960 0
DWIDTH 8 0
BBX 8 8 0 -2
BITMAP
3C
42
42
7E
42
42
04
06
ENDCHAR
STARTCHAR aogonek
ENCODING 261
SWIDTH 960 0
DWIDTH 8 0
BBX 8 8 0 -2
BITMAP
00
3C
02
3E
42
3E
04
06
ENDCHAR
STARTCHAR Cacute
ENCODING 262
SWIDTH 960 0
DWIDTH 8 0
BBX 8 8 0 -2
BITMAP
08
10
3C
42
40
40
3E
00
ENDCHAR
STARTCHAR cacute
ENCODING 263
SWIDTH 960 0
DWIDTH 8 0
BBX 8 8 0 -2
BITMAP
08
10
00
3E
40
40
3E
00
ENDCHAR
STARTCHAR Ccircumflex
ENCODING 264
SWIDTH 960 0
DWIDTH 8 0
BBX 8 8 0 -2
BITMAP
08
14
3C
42
40
40
3E
00
ENDCHAR
STARTCHAR ccircumflex
ENCODING 265
SWIDTH 960 0
DWIDTH 8 0
BBX 8 8 0 -2
BITMAP
08
14
00
3E
40
40
3E
00
ENDCHAR
STARTCHAR Cdotaccent
ENCODING 266
SWIDTH 960 0
DWIDTH 8 0
BBX 8 8 0 -2
BITMAP
08
00
3C
42
40
40
3E
00
ENDCHAR
STARTCHAR cdotaccent
ENCODING 267
SWIDTH 960 0
DWIDTH 8 0
BBX 8 8 0 -2
BITMAP
00
08
00
3E
40
40
3E
00
ENDCHAR
STARTCHAR Ccaron
ENCODING 268
SWIDTH 960 0
DWIDTH 8 0
BBX 8 8 0 -2
BITMAP
14
08
3C
42
40
40
3E
00
ENDCHAR
STARTCHAR ccaron
ENCODING 269
SWIDTH 960 0
DWIDTH 8 0
BBX 8 8 0 -2
BITMAP
14
08
00
3E
40
40
3E
00
ENDCHAR
STARTCHAR Dcaron
ENCODING 270
SWIDTH 960 0
DWIDTH 8 0
BBX 8 8 0 -2
BITMAP
28
10
7C
42
42
42
7C
00
ENDCHAR
STARTCHAR dcaron
ENCODING 271
SWIDTH 960 0
DWIDTH 8 0
BBX 8 8 0 -2
BITMAP
28
12
02
3A
46
42
3E
00
ENDCHAR
STARTCHAR Dcroat
ENCODING 272
SWIDTH 960 0
DWIDTH 8 0
BBX 8 8 0 -2
BITMAP
78
44
42
72
42
44
78
00
ENDCHAR
STARTCHAR dcroat
ENCODING 273
SWIDTH 960 0
DWIDTH 8 0
BBX 8 8 0 -2
BITMAP
02
0E
02
3A
46
42
3E
00
ENDCHAR
STARTCHAR Emacron
ENCODING 274
SWIDTH 960 0
DWIDTH 8 0
BBX 8 8 0 -2
BITMAP
7E
00
7E
40
7C
40
7E
00
ENDCHAR
STARTCHAR emacron
ENCODING 275
SWIDTH 960 0
DWIDTH 8 0
BBX 8 8 0 -2
BITMAP
7E
00
3C
42
7E
40
3E
00
ENDCHAR
STARTCHAR Ebreve
ENCODING 276
SWIDTH 960 0
DWIDTH 8 0
BBX 8 8 0 -2
BITMAP
24
18
7E
40
7C
40
7E
00
ENDCHAR
STARTCHAR ebreve
ENCODING 277
SWIDTH 960 0
DWIDTH 8 0
BBX 8 8 0 -2
BITMAP
24
18
3C
42
7E
40
3E
00
ENDCHAR
STARTCHAR Edotaccent
ENCODING 278
SWIDTH 960 0
DWIDTH 8 0
BBX 8 8 0 -2
BITMAP
10
00
7E
40
7C
40
7E
00
ENDCHAR
STARTCHAR edotaccent
ENCODING 279
SWIDTH 960 0
DWIDTH 8 0
BBX 8 8 0 -2
BITMAP
10
00
3C
42
7E
40
3E
00
ENDCHAR
STARTCHAR Eogonek
ENCODING 280
SWIDTH 960 0
DWIDTH 8 0
BBX 8 8 0 -2
BITMAP
3E
20
3E
20
20
3E
08
0C
ENDCHAR
STARTCHAR eogonek
ENCODING 281
SWIDTH 960 0
DWIDTH 8 0
BBX 8 8 0 -2
BITMAP
00
3C
42
7E
40
3E
08
0C
ENDCHAR
STARTCHAR Ecaron
ENCODING 282
SWIDTH 960 0
DWIDTH 8 0
BBX 8 8 0 -2
BITMAP
28
10
7E
40
7C
40
7E
00
ENDCHAR
STARTCHAR ecaron
ENCODING 283
SWIDTH 960 0
DWIDTH 8 0
BBX 8 8 0 -2
BITMAP
14
08
3C
42
7E
40
3E
00
ENDCHAR
STARTCHAR Gcircumflex
ENCODING 284
SWIDTH 960 0
DWIDTH 8 0
BBX 8 8 0 -2
BITMAP
08
14
3E
40
46
42
3E
00
ENDCHAR
STARTCHAR gcircumflex
ENCODING 285
SWIDTH 960 0
DWIDTH 8 0
BBX 8 8 0 -2
BITMAP
08
14
00
3E
42
3E
02
3C
ENDCHAR
STARTCHAR Gbreve
ENCODING 286
SWIDTH 960 0
DWIDTH 8 0
BBX 8 8 0 -2
BITMAP
42
3C
3E
40
46
42
3E
00
ENDCHAR
STARTCHAR gbreve
ENCODING 287
SWIDTH 960 0
DWIDTH 8 0
BBX 8 8 0 -2
BITMAP
42
3C
00
3E
42
3E
02
3C
ENDCHAR
STARTCHAR Gdotaccent
ENCODING 288
SWIDTH 960 0
DWIDTH 8 0
BBX 8 8 0 -2
BITMAP
08
00
3E
40
46
42
3E
00
ENDCHAR
STARTCHAR gdotaccent
ENCODING 289
SWIDTH 960 0
DWIDTH 8 0
BBX 8 8 0 -2
BITMAP
00
08
00
3E
42
3E
02
3C
ENDCHAR
STARTCHAR Gcommaaccent
ENCODING 290
SWIDTH 960 0
DWIDTH 8 0
BBX 8 8 0 -2
BITMAP
3C
42
40
4E
42
3E
08
10
ENDCHAR
STARTCHAR gcommaaccent
ENCODING 291
SWIDTH 960 0
DWIDTH 8 0
BBX 8 8 0 -2
BITMAP
04
08
3E
42
42
3E
02
3C
ENDCHAR
STARTCHAR Hcircumflex
ENCODING 292
SWIDTH 960 0
DWIDTH 8 0
BBX 8 8 0 -2
BITMAP
08
14
42
42
7E
42
42
42
ENDCHAR
STARTCHAR hcircumflex
ENCODING 293
SWIDTH 960 0
DWIDTH 8 0
BBX 8 8 0 -2
BITMAP
08
54
40
5C
62
42
42
42
ENDCHAR
STARTCHAR Itilde
ENCODING 296
SWIDTH 960 0
DWIDTH 8 0
BBX 8 8 0 -2
BITMAP
32
4C
3E
08
08
08
3E
00
ENDCHAR
STARTCHAR itilde
ENCODING 297
SWIDTH 960 0
DWIDTH 8 0
BBX 8 8 0 -2
BITMAP
32
4C
38
08
08
08
3E
00
ENDCHAR
STARTCHAR Imacron
ENCODING 298
SWIDTH 960 0
DWIDTH 8 0
BBX 8 8 0 -2
BITMAP
1C
00
3E
08
08
08
3E
00
ENDCHAR
STARTCHAR imacron
ENCODING 299
SWIDTH 960 0
DWIDTH 8 0
BBX 8 8 0 -2
BITMAP
3C
00
38
08
08
08
3E
00
ENDCHAR
STARTCHAR Ibreve
ENCODING 300
SWIDTH 960 0
DWIDTH 8 0
BBX 8 8 0 -2
BITMAP
3E
00
3E
08
08
08
3E
00
ENDCHAR
STARTCHAR ibreve
ENCODING 301
SWIDTH 960 0
DWIDTH 8 0
BBX 8 8 0 -2
BITMAP
3C
00
38
08
08
08
3E
00
ENDCHAR
STARTCHAR Iogonek
ENCODING 302
SWIDTH 960 0
DWIDTH 8 0
BBX 8 8 0 -2
BITMAP
3E
08
08
08
08
3E
04
06
ENDCHAR
STARTCHAR iogonek
ENCODING 303
SWIDTH 960 0
DWIDTH 8 0
BBX 8 8 0 -2
BITMAP
18
00
38
08
08
3E
04
06
ENDCHAR
STARTCHAR Idotaccent
ENCODING 304
SWIDTH 960 0
DWIDTH 8 0
BBX 8 8 0 -2
BITMAP
08
00
3E
08
08
08
3E
00
ENDCHAR
STARTCHAR dotlessi
ENCODING 305
SWIDTH 960 0
DWIDTH 8 0
BBX 8 8 0 -2
BITMAP
00
00
38
08
08
08
3E
00
ENDCHAR
STARTCHAR Kcommaaccent
ENCODING 310
SWIDTH 960 0
DWIDTH 8 0
BBX 8 8 0 -2
BITMAP
42
44
48
70
48
44
4A
10
ENDCHAR
STARTCHAR kcommaaccent
ENCODING 311
SWIDTH 960 0
DWIDTH 8 0
BBX 8 8 0 -2
BITMAP
40
40
42
44
78
44
4A
10
ENDCHAR
STARTCHAR kgreenlandic
ENCODING 312
SWIDTH 960 0
DWIDTH 8 0
BBX 8 8 0 -2
BITMAP
00
00
42
44
78
44
42
00
ENDCHAR
STARTCHAR Lacute
ENCODING 313
SWIDTH 960 0
DWIDTH 8 0
BBX 8 8 0 -2
BITMAP
24
28
20
20
20
20
3E
00
ENDCHAR
STARTCHAR lacute
ENCODING 314
SWIDTH 960 0
DWIDTH 8 0
BBX 8 8 0 -2
BITMAP
32
14
10
10
10
10
0C
00
ENDCHAR
STARTCHAR Lcommaaccent
ENCODING 315
SWIDTH 960 0
DWIDTH 8 0
BBX 8 8 0 -2
BITMAP
40
40
40
40
40
7E
08
10
ENDCHAR
STARTCHAR lcommaaccent
ENCODING 316
SWIDTH 960 0
DWIDTH 8 0
BBX 8 8 0 -2
BITMAP
30
10
10
10
10
0C
08
10
ENDCHAR
STARTCHAR Lcaron
ENCODING 317
SWIDTH 960 0
DWIDTH 8 0
BBX 8 8 0 -2
BITMAP
2A
24
20
20
20
20
3E
00
ENDCHAR
STARTCHAR lcaron
ENCODING 318
SWIDTH 960 0
DWIDTH 8 0
BBX 8 8 0 -2
BITMAP
0A
34
10
10
10
10
0C
00
ENDCHAR
STARTCHAR Ldot
ENCODING 319
SWIDTH 960 0
DWIDTH 8 0
BBX 8 8 0 -2
BITMAP
20
24
20
20
20
20
3E
00
ENDCHAR
STARTCHAR ldot
ENCODING 320
SWIDTH 960 0
DWIDTH 8 0
BBX 8 8 0 -2
BITMAP
00
34
10
10
10
10
0C
00
ENDCHAR
STARTCHAR Lslash
ENCODING 321
SWIDTH 960 0
DWIDTH 8 0
BBX 8 8 0 -2
BITMAP
20
20
28
30
60
20
3E
00
ENDCHAR
STARTCHAR lslash
ENCODING 322
SWIDTH 960 0
DWIDTH 8 0
BBX 8 8 0 -2
BITMAP
30
10
14
18
30
10
0C
00
ENDCHAR
STARTCHAR Nacute
ENCODING 323
SWIDTH 960 0
DWIDTH 8 0
BBX 8 8 0 -2
BITMAP
04
08
42
62
52
4A
46
00
ENDCHAR
STARTCHAR nacute
ENCODING 324
SWIDTH 960 0
DWIDTH 8 0
BBX 8 8 0 -2
BITMAP
08
10
00
5C
62
42
42
00
ENDCHAR
STARTCHAR Ncommaaccent
ENCODING 325
SWIDTH 960 0
DWIDTH 8 0
BBX 8 8 0 -2
BITMAP
42
62
52
4A
46
42
4A
10
ENDCHAR
STARTCHAR ncommaaccent
ENCODING 326
SWIDTH 960 0
DWIDTH 8 0
BBX 8 8 0 -2
BITMAP
00
00
5C
62
42
42
4A
10
ENDCHAR
STARTCHAR Ncaron
ENCODING 327
SWIDTH 960 0
DWIDTH 8 0
BBX 8 8 0 -2
BITMAP
14
08
42
62
52
4A
46
00
ENDCHAR
STARTCHAR ncaron
ENCODING 328
SWIDTH 960 0
DWIDTH 8 0
BBX 8 8 0 -2
BITMAP
28
10
00
5C
62
42
42
00
ENDCHAR
STARTCHAR Omacron
ENCODING 332
SWIDTH 960 0
DWIDTH 8 0
BBX 8 8 0 -2
BITMAP
7E
00
3C
42
42
42
3C
00
ENDCHAR
STARTCHAR omacron
ENCODING 333
SWIDTH 960 0
DWIDTH 8 0
BBX 8 8 0 -2
BITMAP
3C
00
3C
42
42
42
3C
00
ENDCHAR
STARTCHAR Obreve
ENCODING 334
SWIDTH 960 0
DWIDTH 8 0
BBX 8 8 0 -2
BITMAP
42
3C
3C
42
42
42
3C
00
ENDCHAR
STARTCHAR obreve
ENCODING 335
SWIDTH 960 0
DWIDTH 8 0
BBX 8 8 0 -2
BITMAP
42
3C
00
3C
42
42
3C
00
ENDCHAR
STARTCHAR Ohungarumlaut
ENCODING 336
SWIDTH 960 0
DWIDTH 8 0
BBX 8 8 0 -2
BITMAP
22
44
3C
42
42
42
3C
00
ENDCHAR
STARTCHAR ohungarumlaut
ENCODING 337
SWIDTH 960 0
DWIDTH 8 0
BBX 8 8 0 -2
BITMAP
22
44
00
3C
42
42
3C
00
ENDCHAR
STARTCHAR OE
ENCODING 338
SWIDTH 960 0
DWIDTH 8 0
BBX 8 8 0 -2
BITMAP
3E
48
48
4E
48
48
3E
00
ENDCHAR
STARTCHAR oe
ENCODING 339
SWIDTH 960 0
DWIDTH 8 0
BBX 8 8 0 -2
BITMAP
00
00
36
49
4F
48
37
00
ENDCHAR
STARTCHAR Racute
ENCODING 340
SWIDTH 960 0
DWIDTH 8 0
BBX 8 8 0 -2
BITMAP
08
10
7C
42
7C
42
42
00
ENDCHAR
STARTCHAR racute
ENCODING 341
SWIDTH 960 0
DWIDTH 8 0
BBX 8 8 0 -2
BITMAP
04
08
00
5C
62
40
40
00
ENDCHAR
STARTCHAR Rcommaaccent
ENCODING 342
SWIDTH 960 0
DWIDTH 8 0
BBX 8 8 0 -2
BITMAP
7C
42
42
7C
42
42
4A
10
ENDCHAR
STARTCHAR rcommaaccent
ENCODING 343
SWIDTH 960 0
DWIDTH 8 0
BBX 8 8 0 -2
BITMAP
00
00
5C
62
40
40
20
40
ENDCHAR
STARTCHAR Rcaron
ENCODING 344
SWIDTH 960 0
DWIDTH 8 0
BBX 8 8 0 -2
BITMAP
28
10
7C
42
7C
42
42
00
ENDCHAR
STARTCHAR rcaron
ENCODING 345
SWIDTH 960 0
DWIDTH 8 0
BBX 8 8 0 -2
BITMAP
14
08
00
5C
62
40
40
00
ENDCHAR
STARTCHAR Sacute
ENCODING 346
SWIDTH 960 0
DWIDTH 8 0
BBX 8 8 0 -2
BITMAP
08
10
3E
40
3C
02
7C
00
ENDCHAR
STARTCHAR sacute
ENCODING 347
SWIDTH 960 0
DWIDTH 8 0
BBX 8 8 0 -2
BITMAP
08
10
1C
20
1C
02
3C
00
ENDCHAR
STARTCHAR Scircumflex
ENCODING 348
SWIDTH 960 0
DWIDTH 8 0
BBX 8 8 0 -2
BITMAP
08
14
3E
40
3C
02
7C
00
ENDCHAR
STARTCHAR scircumflex
ENCODING 349
SWIDTH 960 0
DWIDTH 8 0
BBX 8 8 0 -2
BITMAP
08
14
1C
20
1C
02
3C
00
ENDCHAR
STARTCHAR Scedilla
ENCODING 350
SWIDTH 960 0
DWIDTH 8 0
BBX 8 8 0 -2
BITMAP
3C
42
30
0C
42
3C
08
18
ENDCHAR
STARTCHAR scedilla
ENCODING 351
SWIDTH 960 0
DWIDTH 8 0
BBX 8 8 0 -2
BITMAP
00
1C
20
1C
02
3C
08
18
ENDCHAR
STARTCHAR Scaron
ENCODING 352
SWIDTH 960 0
DWIDTH 8 0
BBX 8 8 0 -2
BITMAP
14
08
3E
40
3C
02
7C
00
ENDCHAR
STARTCHAR scaron
ENCODING 353
SWIDTH 960 0
DWIDTH 8 0
BBX 8 8 0 -2
BITMAP
14
08
1C
20
1C
02
3C
00
ENDCHAR
STARTCHAR Tcommaaccent
ENCODING 354
SWIDTH 960 0
DWIDTH 8 0
BBX 8 8 0 -2
BITMAP
3E
08
08
08
08
08
04
0C
ENDCHAR
STARTCHAR tcommaaccent
ENCODING 355
SWIDTH 960 0
DWIDTH 8 0
BBX 8 8 0 -2
BITMAP
10
3C
10
10
10
0C
08
18
ENDCHAR
STARTCHAR Tcaron
ENCODING 356
SWIDTH 960 0
DWIDTH 8 0
BBX 8 8 0 -2
BITMAP
14
08
3E
08
08
08
08
00
ENDCHAR
STARTCHAR tcaron
ENCODING 357
SWIDTH 960 0
DWIDTH 8 0
BBX 8 8 0 -2
BITMAP
0A
24
20
78
20
20
18
00
ENDCHAR
STARTCHAR Tbar
ENCODING 358
SWIDTH 960 0
DWIDTH 8 0
BBX 8 8 0 -2
BITMAP
3E
08
08
1C
08
08
08
00
ENDCHAR
STARTCHAR tbar
ENCODING 359
SWIDTH 960 0
DWIDTH 8 0
BBX 8 8 0 -2
BITMAP
10
10
3C
10
38
10
0C
00
ENDCHAR
STARTCHAR Utilde
ENCODING 360
SWIDTH 960 0
DWIDTH 8 0
BBX 8 8 0 -2
BITMAP
14
28
42
42
42
42
3C
00
ENDCHAR
STARTCHAR utilde
ENCODING 361
SWIDTH 960 0
DWIDTH 8 0
BBX 8 8 0 -2
BITMAP
14
28
42
42
42
46
3A
00
ENDCHAR
STARTCHAR Umacron
ENCODING 362
SWIDTH 960 0
DWIDTH 8 0
BBX 8 8 0 -2
BITMAP
7E
00
42
42
42
42
3C
00
ENDCHAR
STARTCHAR umacron
ENCODING 363
SWIDTH 960 0
DWIDTH 8 0
BBX 8 8 0 -2
BITMAP
3C
00
42
42
42
46
3A
00
ENDCHAR
STARTCHAR Ubreve
ENCODING 364
SWIDTH 960 0
DWIDTH 8 0
BBX 8 8 0 -2
BITMAP
24
18
42
42
42
42
3C
00
ENDCHAR
STARTCHAR ubreve
ENCODING 365
SWIDTH 960 0
DWIDTH 8 0
BBX 8 8 0 -2
BITMAP
42
3C
00
42
42
46
3A
00
ENDCHAR
STARTCHAR Uring
ENCODING 366
SWIDTH 960 0
DWIDTH 8 0
BBX 8 8 0 -2
BITMAP
18
24
18
42
42
42
3C
00
ENDCHAR
STARTCHAR uring
ENCODING 367
SWIDTH 960 0
DWIDTH 8 0
BBX 8 8 0 -2
BITMAP
18
24
18
42
42
46
3A
00
ENDCHAR
STARTCHAR Uhungarumlaut
ENCODING 368
SWIDTH 960 0
DWIDTH 8 0
BBX 8 8 0 -2
BITMAP
12
24
42
42
42
42
3C
00
ENDCHAR
STARTCHAR uhungarumlaut
ENCODING 369
SWIDTH 960 0
DWIDTH 8 0
BBX 8 8 0 -2
BITMAP
22
44
00
42
42
46
3A
00
ENDCHAR
STARTCHAR Uogonek
ENCODING 370
SWIDTH 960 0
DWIDTH 8 0
BBX 8 8 0 -2
BITMAP
42
42
42
42
42
3C
04
06
ENDCHAR
STARTCHAR uogonek
ENCODING 371
SWIDTH 960 0
DWIDTH 8 0
BBX 8 8 0 -2
BITMAP
00
00
42
42
46
3A
04
06
ENDCHAR
STARTCHAR Wcircumflex
ENCODING 372
SWIDTH 960 0
DWIDTH 8 0
BBX 8 8 0 -2
BITMAP
49
55
41
49
49
49
36
00
ENDCHAR
STARTCHAR wcircumflex
ENCODING 373
SWIDTH 960 0
DWIDTH 8 0
BBX 8 8 0 -2
BITMAP
08
14
41
49
49
49
36
00
ENDCHAR
STARTCHAR Ycircumflex
ENCODING 374
SWIDTH 960 0
DWIDTH 8 0
BBX 8 8 0 -2
BITMAP
08
14
41
22
14
08
08
08
ENDCHAR
STARTCHAR ycircumflex
ENCODING 375
SWIDTH 960 0
DWIDTH 8 0
BBX 8 8 0 -2
BITMAP
08
14
42
42
42
3E
02
3C
ENDCHAR
STARTCHAR Ydieresis
ENCODING 376
SWIDTH 960 0
DWIDTH 8 0
BBX 8 8 0 -2
BITMAP
14
41
22
14
08
08
08
00
ENDCHAR
STARTCHAR Zacute
ENCODING 377
SWIDTH 960 0
DWIDTH 8 0
BBX 8 8 0 -2
BITMAP
08
10
7E
04
18
20
7E
00
ENDCHAR
STARTCHAR zacute
ENCODING 378
SWIDTH 960 0
DWIDTH 8 0
BBX 8 8 0 -2
BITMAP
04
08
00
3E
04
18
3E
00
ENDCHAR
STARTCHAR Zdotaccent
ENCODING 379
SWIDTH 960 0
DWIDTH 8 0
BBX 8 8 0 -2
BITMAP
18
00
7E
04
18
20
7E
00
ENDCHAR
STARTCHAR zdotaccent
ENCODING 380
SWIDTH 960 0
DWIDTH 8 0
BBX 8 8 0 -2
BITMAP
00
18
00
3E
04
18
3E
00
ENDCHAR
STARTCHAR Zcaron
ENCODING 381
SWIDTH 960 0
DWIDTH 8 0
BBX 8 8 0 -2
BITMAP
24
18
7E
04
18
20
7E
00
ENDCHAR
STARTCHAR zcaron
ENCODING 382
SWIDTH 960 0
DWIDTH 8 0
BBX 8 8 0 -2
BITMAP
14
08
00
3E
04
18
3E
00
ENDCHAR
STARTCHAR longs
ENCODING 383
SWIDTH 960 0
DWIDTH 8 0
BBX 8 8 0 -2
BITMAP
04
0A
08
18
08
08
28
10
ENDCHAR
STARTCHAR florin
ENCODING 402
SWIDTH 960 0
DWIDTH 8 0
BBX 8 8 0 -2
BITMAP
04
0A
08
1C
08
08
28
10
ENDCHAR
STARTCHAR uni01DD
ENCODING 477
SWIDTH 960 0
DWIDTH 8 0
BBX 8 8 0 -2
BITMAP
38
44
02
3E
42
42
3C
00
ENDCHAR
STARTCHAR Gcaron
ENCODING 486
SWIDTH 960 0
DWIDTH 8 0
BBX 8 8 0 -2
BITMAP
14
08
3E
40
46
42
3E
00
ENDCHAR
STARTCHAR gcaron
ENCODING 487
SWIDTH 960 0
DWIDTH 8 0
BBX 8 8 0 -2
BITMAP
14
08
00
3E
42
3E
02
3C
ENDCHAR
STARTCHAR Scommaaccent
ENCODING 536
SWIDTH 960 0
DWIDTH 8 0
BBX 8 8 0 -2
BITMAP
3C
42
30
0C
42
3C
08
18
ENDCHAR
STARTCHAR scommaaccent
ENCODING 537
SWIDTH 960 0
DWIDTH 8 0
BBX 8 8 0 -2
BITMAP
00
1C
20
1C
02
3C
08
18
ENDCHAR
STARTCHAR circumflex
ENCODING 710
SWIDTH 960 0
DWIDTH 8 0
BBX 8 8 0 -2
BITMAP
08
14
22
00
00
00
00
00
ENDCHAR
STARTCHAR caron
ENCODING 711
SWIDTH 960 0
DWIDTH 8 0
BBX 8 8 0 -2
BITMAP
22
14
08
00
00
00
00
00
ENDCHAR
STARTCHAR uni02CD
ENCODING 717
SWIDTH 960 0
DWIDTH 8 0
BBX 8 8 0 -2
BITMAP
00
00
00
00
00
00
FF
FF
ENDCHAR
STARTCHAR breve
ENCODING 728
SWIDTH 960 0
DWIDTH 8 0
BBX 8 8 0 -2
BITMAP
42
3C
00
00
00
00
00
00
ENDCHAR
STARTCHAR ring
ENCODING 730
SWIDTH 960 0
DWIDTH 8 0
BBX 8 8 0 -2
BITMAP
18
24
24
18
00
00
00
00
ENDCHAR
STARTCHAR ogonek
ENCODING 731
SWIDTH 960 0
DWIDTH 8 0
BBX 8 8 0 -2
BITMAP
00
00
00
00
00
00
10
18
ENDCHAR
STARTCHAR tonos
ENCODING 900
SWIDTH 960 0
DWIDTH 8 0
BBX 8 8 0 -2
BITMAP
04
08
10
00
00
00
00
00
ENDCHAR
STARTCHAR dieresistonos
ENCODING 901
SWIDTH 960 0
DWIDTH 8 0
BBX 8 8 0 -2
BITMAP
04
08
22
00
00
00
00
00
ENDCHAR
STARTCHAR Alphatonos
ENCODING 902
SWIDTH 960 0
DWIDTH 8 0
BBX 8 8 0 -2
BITMAP
2C
52
21
21
3F
21
21
00
ENDCHAR
STARTCHAR anoteleia
ENCODING 903
SWIDTH 960 0
DWIDTH 8 0
BBX 8 8 0 -2
BITMAP
00
00
00
10
10
00
00
00
ENDCHAR
STARTCHAR Epsilontonos
ENCODING 904
SWIDTH 960 0
DWIDTH 8 0
BBX 8 8 0 -2
BITMAP
3F
50
10
1E
10
10
1F
00
ENDCHAR
STARTCHAR Etatonos
ENCODING 905
SWIDTH 960 0
DWIDTH 8 0
BBX 8 8 0 -2
BITMAP
31
51
11
1F
11
11
11
00
ENDCHAR
STARTCHAR Iotatonos
ENCODING 906
SWIDTH 960 0
DWIDTH 8 0
BBX 8 8 0 -2
BITMAP
2E
44
04
04
04
04
0E
00
ENDCHAR
STARTCHAR Omicrontonos
ENCODING 908
SWIDTH 960 0
DWIDTH 8 0
BBX 8 8 0 -2
BITMAP
2E
51
11
11
11
11
0E
00
ENDCHAR
STARTCHAR Upsilontonos
ENCODING 910
SWIDTH 960 0
DWIDTH 8 0
BBX 8 8 0 -2
BITMAP
31
51
0A
04
04
04
04
00
ENDCHAR
STARTCHAR Omegatonos
ENCODING 911
SWIDTH 960 0
DWIDTH 8 0
BBX 8 8 0 -2
BITMAP
2E
51
11
11
11
0A
1B
00
ENDCHAR
STARTCHAR iotadieresistonos
ENCODING 912
SWIDTH 960 0
DWIDTH 8 0
BBX 8 8 0 -2
BITMAP
08
52
00
10
10
14
08
00
ENDCHAR
STARTCHAR Alpha
ENCODING 913
SWIDTH 960 0
DWIDTH 8 0
BBX 8 8 0 -2
BITMAP
18
24
42
42
7E
42
42
00
ENDCHAR
STARTCHAR Beta
ENCODING 914
SWIDTH 960 0
DWIDTH 8 0
BBX 8 8 0 -2
BITMAP
7C
42
42
7C
42
42
7C
00
ENDCHAR
STARTCHAR Gamma
ENCODING 915
SWIDTH 960 0
DWIDTH 8 0
BBX 8 8 0 -2
BITMAP
3E
20
20
20
20
20
20
00
ENDCHAR
STARTCHAR Delta
ENCODING 916
SWIDTH 960 0
DWIDTH 8 0
BBX 8 8 0 -2
BITMAP
18
24
42
42
42
42
7E
00
ENDCHAR
STARTCHAR Epsilon
ENCODING 917
SWIDTH 960 0
DWIDTH 8 0
BBX 8 8 0 -2
BITMAP
7E
40
40
7C
40
40
7E
00
ENDCHAR
STARTCHAR Zeta
ENCODING 918
SWIDTH 960 0
DWIDTH 8 0
BBX 8 8 0 -2
BITMAP
7E
04
08
10
20
40
7E
00
ENDCHAR
STARTCHAR Eta
ENCODING 919
SWIDTH 960 0
DWIDTH 8 0
BBX 8 8 0 -2
BITMAP
42
42
42
7E
42
42
42
00
ENDCHAR
STARTCHAR Theta
ENCODING 920
SWIDTH 960 0
DWIDTH 8 0
BBX 8 8 0 -2
BITMAP
3C
42
22
1E
42
42
3C
00
ENDCHAR
STARTCHAR Iota
ENCODING 921
SWIDTH 960 0
DWIDTH 8 0
BBX 8 8 0 -2
BITMAP
1C
08
08
08
08
08
1C
00
ENDCHAR
STARTCHAR Kappa
ENCODING 922
SWIDTH 960 0
DWIDTH 8 0
BBX 8 8 0 -2
BITMAP
42
44
48
70
48
44
42
00
ENDCHAR
STARTCHAR Lambda
ENCODING 923
SWIDTH 960 0
DWIDTH 8 0
BBX 8 8 0 -2
BITMAP
18
24
42
42
42
42
42
00
ENDCHAR
STARTCHAR Mu
ENCODING 924
SWIDTH 960 0
DWIDTH 8 0
BBX 8 8 0 -2
BITMAP
41
63
55
49
41
41
41
00
ENDCHAR
STARTCHAR Nu
ENCODING 925
SWIDTH 960 0
DWIDTH 8 0
BBX 8 8 0 -2
BITMAP
42
62
52
4A
46
42
42
00
ENDCHAR
STARTCHAR Xi
ENCODING 926
SWIDTH 960 0
DWIDTH 8 0
BBX 8 8 0 -2
BITMAP
7E
00
00
3C
00
00
7E
00
ENDCHAR
STARTCHAR Omicron
ENCODING 927
SWIDTH 960 0
DWIDTH 8 0
BBX 8 8 0 -2
BITMAP
3C
42
42
42
42
42
3C
00
ENDCHAR
STARTCHAR Pi
ENCODING 928
SWIDTH 960 0
DWIDTH 8 0
BBX 8 8 0 -2
BITMAP
7E
42
42
42
42
42
42
00
ENDCHAR
STARTCHAR Rho
ENCODING 929
SWIDTH 960 0
DWIDTH 8 0
BBX 8 8 0 -2
BITMAP
7C
42
42
42
7C
40
40
00
ENDCHAR
STARTCHAR Sigma
ENCODING 931
SWIDTH 960 0
DWIDTH 8 0
BBX 8 8 0 -2
BITMAP
7E
20
10
08
10
20
7E
00
ENDCHAR
STARTCHAR Tau
ENCODING 932
SWIDTH 960 0
DWIDTH 8 0
BBX 8 8 0 -2
BITMAP
3E
08
08
08
08
08
08
00
ENDCHAR
STARTCHAR Upsilon
ENCODING 933
SWIDTH 960 0
DWIDTH 8 0
BBX 8 8 0 -2
BITMAP
41
41
22
14
08
08
08
00
ENDCHAR
STARTCHAR Phi
ENCODING 934
SWIDTH 960 0
DWIDTH 8 0
BBX 8 8 0 -2
BITMAP
08
3E
49
49
49
3E
08
00
ENDCHAR
STARTCHAR Chi
ENCODING 935
SWIDTH 960 0
DWIDTH 8 0
BBX 8 8 0 -2
BITMAP
42
42
24
18
24
42
42
00
ENDCHAR
STARTCHAR Psi
ENCODING 936
SWIDTH 960 0
DWIDTH 8 0
BBX 8 8 0 -2
BITMAP
41
49
49
49
49
3E
08
00
ENDCHAR
STARTCHAR Omega
ENCODING 937
SWIDTH 960 0
DWIDTH 8 0
BBX 8 8 0 -2
BITMAP
3C
42
42
42
42
24
66
00
ENDCHAR
STARTCHAR Iotadieresis
ENCODING 938
SWIDTH 960 0
DWIDTH 8 0
BBX 8 8 0 -2
BITMAP
14
00
1C
08
08
08
1C
00
ENDCHAR
STARTCHAR Upsilondieresis
ENCODING 939
SWIDTH 960 0
DWIDTH 8 0
BBX 8 8 0 -2
BITMAP
14
00
22
22
14
08
08
00
ENDCHAR
STARTCHAR alphatonos
ENCODING 940
SWIDTH 960 0
DWIDTH 8 0
BBX 8 8 0 -2
BITMAP
08
10
3A
44
44
44
3A
00
ENDCHAR
STARTCHAR epsilontonos
ENCODING 941
SWIDTH 960 0
DWIDTH 8 0
BBX 8 8 0 -2
BITMAP
04
08
3E
40
38
40
3E
00
ENDCHAR
STARTCHAR etatonos
ENCODING 942
SWIDTH 960 0
DWIDTH 8 0
BBX 8 8 0 -2
BITMAP
04
08
5C
62
42
42
42
00
ENDCHAR
STARTCHAR iotatonos
ENCODING 943
SWIDTH 960 0
DWIDTH 8 0
BBX 8 8 0 -2
BITMAP
04
08
10
10
10
14
08
00
ENDCHAR
STARTCHAR upsilondieresistonos
ENCODING 944
SWIDTH 960 0
DWIDTH 8 0
BBX 8 8 0 -2
BITMAP
08
52
00
42
42
42
3C
00
ENDCHAR
STARTCHAR alpha
ENCODING 945
SWIDTH 960 0
DWIDTH 8 0
BBX 8 8 0 -2
BITMAP
00
00
3A
44
44
44
3A
00
ENDCHAR
STARTCHAR beta
ENCODING 946
SWIDTH 960 0
DWIDTH 8 0
BBX 8 8 0 -2
BITMAP
38
44
44
7C
42
42
7C
40
ENDCHAR
STARTCHAR gamma
ENCODING 947
SWIDTH 960 0
DWIDTH 8 0
BBX 8 8 0 -2
BITMAP
00
00
22
14
1C
22
22
1C
ENDCHAR
STARTCHAR delta
ENCODING 948
SWIDTH 960 0
DWIDTH 8 0
BBX 8 8 0 -2
BITMAP
3E
10
08
3C
42
42
3C
00
ENDCHAR
STARTCHAR epsilon
ENCODING 949
SWIDTH 960 0
DWIDTH 8 0
BBX 8 8 0 -2
BITMAP
00
00
3E
40
38
40
3E
00
ENDCHAR
STARTCHAR zeta
ENCODING 950
SWIDTH 960 0
DWIDTH 8 0
BBX 8 8 0 -2
BITMAP
3E
08
10
20
20
1C
02
1C
ENDCHAR
STARTCHAR eta
ENCODING 951
SWIDTH 960 0
DWIDTH 8 0
BBX 8 8 0 -2
BITMAP
00
00
5C
62
42
42
42
00
ENDCHAR
STARTCHAR theta
ENCODING 952
SWIDTH 960 0
DWIDTH 8 0
BBX 8 8 0 -2
BITMAP
3C
42
42
7E
42
42
3C
00
ENDCHAR
STARTCHAR iota
ENCODING 953
SWIDTH 960 0
DWIDTH 8 0
BBX 8 8 0 -2
BITMAP
00
00
10
10
10
14
18
00
ENDCHAR
STARTCHAR kappa
ENCODING 954
SWIDTH 960 0
DWIDTH 8 0
BBX 8 8 0 -2
BITMAP
00
00
42
44
78
44
42
00
ENDCHAR
STARTCHAR lambda
ENCODING 955
SWIDTH 960 0
DWIDTH 8 0
BBX 8 8 0 -2
BITMAP
3C
42
02
3E
42
42
42
00
ENDCHAR
STARTCHAR mu
ENCODING 956
SWIDTH 960 0
DWIDTH 8 0
BBX 8 8 0 -2
BITMAP
00
00
44
44
44
44
7A
40
ENDCHAR
STARTCHAR nu
ENCODING 957
SWIDTH 960 0
DWIDTH 8 0
BBX 8 8 0 -2
BITMAP
00
00
41
41
22
14
08
00
ENDCHAR
STARTCHAR xi
ENCODING 958
SWIDTH 960 0
DWIDTH 8 0
BBX 8 8 0 -2
BITMAP
3E
10
20
18
20
1C
02
1C
ENDCHAR
STARTCHAR omicron
ENCODING 959
SWIDTH 960 0
DWIDTH 8 0
BBX 8 8 0 -2
BITMAP
00
00
3C
42
42
42
3C
00
ENDCHAR
STARTCHAR pi
ENCODING 960
SWIDTH 960 0
DWIDTH 8 0
BBX 8 8 0 -2
BITMAP
00
00
7E
24
24
24
24
00
ENDCHAR
STARTCHAR rho
ENCODING 961
SWIDTH 960 0
DWIDTH 8 0
BBX 8 8 0 -2
BITMAP
00
00
3C
42
42
62
5C
40
ENDCHAR
STARTCHAR sigma1
ENCODING 962
SWIDTH 960 0
DWIDTH 8 0
BBX 8 8 0 -2
BITMAP
00
00
3C
42
40
3C
02
3C
ENDCHAR
STARTCHAR sigma
ENCODING 963
SWIDTH 960 0
DWIDTH 8 0
BBX 8 8 0 -2
BITMAP
00
00
3E
44
44
44
38
00
ENDCHAR
STARTCHAR tau
ENCODING 964
SWIDTH 960 0
DWIDTH 8 0
BBX 8 8 0 -2
BITMAP
00
00
3E
08
08
08
08
00
ENDCHAR
STARTCHAR upsilon
ENCODING 965
SWIDTH 960 0
DWIDTH 8 0
BBX 8 8 0 -2
BITMAP
00
00
42
42
42
42
3C
00
ENDCHAR
STARTCHAR phi
ENCODING 966
SWIDTH 960 0
DWIDTH 8 0
BBX 8 8 0 -2
BITMAP
00
00
26
49
49
49
3E
08
ENDCHAR
STARTCHAR chi
ENCODING 967
SWIDTH 960 0
DWIDTH 8 0
BBX 8 8 0 -2
BITMAP
00
00
42
24
18
24
42
00
ENDCHAR
STARTCHAR psi
ENCODING 968
SWIDTH 960 0
DWIDTH 8 0
BBX 8 8 0 -2
BITMAP
00
00
41
49
49
49
3E
08
ENDCHAR
STARTCHAR omega
ENCODING 969
SWIDTH 960 0
DWIDTH 8 0
BBX 8 8 0 -2
BITMAP
00
00
22
41
49
49
36
00
ENDCHAR
STARTCHAR iotadieresis
ENCODING 970
SWIDTH 960 0
DWIDTH 8 0
BBX 8 8 0 -2
BITMAP
24
00
10
10
10
14
08
00
ENDCHAR
STARTCHAR upsilondieresis
ENCODING 971
SWIDTH 960 0
DWIDTH 8 0
BBX 8 8 0 -2
BITMAP
00
42
00
42
42
42
3C
00
ENDCHAR
STARTCHAR omicrontonos
ENCODING 972
SWIDTH 960 0
DWIDTH 8 0
BBX 8 8 0 -2
BITMAP
08
10
3C
42
42
42
3C
00
ENDCHAR
STARTCHAR upsilontonos
ENCODING 973
SWIDTH 960 0
DWIDTH 8 0
BBX 8 8 0 -2
BITMAP
08
10
42
42
42
42
3C
00
ENDCHAR
STARTCHAR omegatonos
ENCODING 974
SWIDTH 960 0
DWIDTH 8 0
BBX 8 8 0 -2
BITMAP
04
08
22
41
49
49
36
00
ENDCHAR
STARTCHAR uni0400
ENCODING 1024
SWIDTH 960 0
DWIDTH 8 0
BBX 8 8 0 -2
BITMAP
10
08
7E
40
7C
40
7E
00
ENDCHAR
STARTCHAR afii10023
ENCODING 1025
SWIDTH 960 0
DWIDTH 8 0
BBX 8 8 0 -2
BITMAP
24
00
7E
40
7C
40
7E
00
ENDCHAR
STARTCHAR afii10051
ENCODING 1026
SWIDTH 960 0
DWIDTH 8 0
BBX 8 8 0 -2
BITMAP
F8
40
5C
62
42
42
44
00
ENDCHAR
STARTCHAR afii10052
ENCODING 1027
SWIDTH 960 0
DWIDTH 8 0
BBX 8 8 0 -2
BITMAP
04
08
7E
40
40
40
40
00
ENDCHAR
STARTCHAR afii10053
ENCODING 1028
SWIDTH 960 0
DWIDTH 8 0
BBX 8 8 0 -2
BITMAP
3C
42
40
78
40
42
3C
00
ENDCHAR
STARTCHAR afii10054
ENCODING 1029
SWIDTH 960 0
DWIDTH 8 0
BBX 8 8 0 -2
BITMAP
3C
42
40
3C
02
42
3C
00
ENDCHAR
STARTCHAR afii10055
ENCODING 1030
SWIDTH 960 0
DWIDTH 8 0
BBX 8 8 0 -2
BITMAP
3E
08
08
08
08
08
3E
00
ENDCHAR
STARTCHAR afii10056
ENCODING 1031
SWIDTH 960 0
DWIDTH 8 0
BBX 8 8 0 -2
BITMAP
22
00
3E
08
08
08
3E
00
ENDCHAR
STARTCHAR afii10057
ENCODING 1032
SWIDTH 960 0
DWIDTH 8 0
BBX 8 8 0 -2
BITMAP
1E
04
04
04
04
44
38
00
ENDCHAR
STARTCHAR afii10058
ENCODING 1033
SWIDTH 960 0
DWIDTH 8 0
BBX 8 8 0 -2
BITMAP
18
28
48
4E
49
49
4E
00
ENDCHAR
STARTCHAR afii10059
ENCODING 1034
SWIDTH 960 0
DWIDTH 8 0
BBX 8 8 0 -2
BITMAP
48
48
48
7E
49
49
4E
00
ENDCHAR
STARTCHAR afii10060
ENCODING 1035
SWIDTH 960 0
DWIDTH 8 0
BBX 8 8 0 -2
BITMAP
F8
40
5C
62
42
42
42
00
ENDCHAR
STARTCHAR afii10061
ENCODING 1036
SWIDTH 960 0
DWIDTH 8 0
BBX 8 8 0 -2
BITMAP
08
52
44
48
78
44
42
00
ENDCHAR
STARTCHAR uni040D
ENCODING 1037
SWIDTH 960 0
DWIDTH 8 0
BBX 8 8 0 -2
BITMAP
10
08
46
4A
52
62
42
00
ENDCHAR
STARTCHAR afii10062
ENCODING 1038
SWIDTH 960 0
DWIDTH 8 0
BBX 8 8 0 -2
BITMAP
12
0C
21
12
0C
08
30
00
ENDCHAR
STARTCHAR afii10145
ENCODING 1039
SWIDTH 960 0
DWIDTH 8 0
BBX 8 8 0 -2
BITMAP
42
42
42
42
42
42
7E
18
ENDCHAR
STARTCHAR afii10017
ENCODING 1040
SWIDTH 960 0
DWIDTH 8 0
BBX 8 8 0 -2
BITMAP
18
24
42
42
7E
42
42
00
ENDCHAR
STARTCHAR afii10018
ENCODING 1041
SWIDTH 960 0
DWIDTH 8 0
BBX 8 8 0 -2
BITMAP
7C
40
40
7C
42
42
7C
00
ENDCHAR
STARTCHAR afii10019
ENCODING 1042
SWIDTH 960 0
DWIDTH 8 0
BBX 8 8 0 -2
BITMAP
7C
42
42
7C
42
42
7C
00
ENDCHAR
STARTCHAR afii10020
ENCODING 1043
SWIDTH 960 0
DWIDTH 8 0
BBX 8 8 0 -2
BITMAP
7E
40
40
40
40
40
40
00
ENDCHAR
STARTCHAR afii10021
ENCODING 1044
SWIDTH 960 0
DWIDTH 8 0
BBX 8 8 0 -2
BITMAP
0E
12
12
22
22
22
7F
41
ENDCHAR
STARTCHAR afii10022
ENCODING 1045
SWIDTH 960 0
DWIDTH 8 0
BBX 8 8 0 -2
BITMAP
7E
40
40
7C
40
40
7E
00
ENDCHAR
STARTCHAR afii10024
ENCODING 1046
SWIDTH 960 0
DWIDTH 8 0
BBX 8 8 0 -2
BITMAP
49
49
2A
1C
2A
49
49
00
ENDCHAR
STARTCHAR afii10025
ENCODING 1047
SWIDTH 960 0
DWIDTH 8 0
BBX 8 8 0 -2
BITMAP
3C
42
02
1C
02
42
3C
00
ENDCHAR
STARTCHAR afii10026
ENCODING 1048
SWIDTH 960 0
DWIDTH 8 0
BBX 8 8 0 -2
BITMAP
42
42
46
4A
52
62
42
00
ENDCHAR
STARTCHAR afii10027
ENCODING 1049
SWIDTH 960 0
DWIDTH 8 0
BBX 8 8 0 -2
BITMAP
24
18
46
4A
52
62
42
00
ENDCHAR
STARTCHAR afii10028
ENCODING 1050
SWIDTH 960 0
DWIDTH 8 0
BBX 8 8 0 -2
BITMAP
42
44
48
70
48
44
42
00
ENDCHAR
STARTCHAR afii10029
ENCODING 1051
SWIDTH 960 0
DWIDTH 8 0
BBX 8 8 0 -2
BITMAP
18
18
24
24
42
42
42
00
ENDCHAR
STARTCHAR afii10030
ENCODING 1052
SWIDTH 960 0
DWIDTH 8 0
BBX 8 8 0 -2
BITMAP
41
63
55
49
41
41
41
00
ENDCHAR
STARTCHAR afii10031
ENCODING 1053
SWIDTH 960 0
DWIDTH 8 0
BBX 8 8 0 -2
BITMAP
42
42
42
7E
42
42
42
00
ENDCHAR
STARTCHAR afii10032
ENCODING 1054
SWIDTH 960 0
DWIDTH 8 0
BBX 8 8 0 -2
BITMAP
3C
42
42
42
42
42
3C
00
ENDCHAR
STARTCHAR afii10033
ENCODING 1055
SWIDTH 960 0
DWIDTH 8 0
BBX 8 8 0 -2
BITMAP
7E
42
42
42
42
42
42
00
ENDCHAR
STARTCHAR afii10034
ENCODING 1056
SWIDTH 960 0
DWIDTH 8 0
BBX 8 8 0 -2
BITMAP
7C
42
42
42
7C
40
40
00
ENDCHAR
STARTCHAR afii10035
ENCODING 1057
SWIDTH 960 0
DWIDTH 8 0
BBX 8 8 0 -2
BITMAP
3C
42
40
40
40
42
3C
00
ENDCHAR
STARTCHAR afii10036
ENCODING 1058
SWIDTH 960 0
DWIDTH 8 0
BBX 8 8 0 -2
BITMAP
3E
08
08
08
08
08
08
00
ENDCHAR
STARTCHAR afii10037
ENCODING 1059
SWIDTH 960 0
DWIDTH 8 0
BBX 8 8 0 -2
BITMAP
41
41
22
14
08
10
60
00
ENDCHAR
STARTCHAR afii10038
ENCODING 1060
SWIDTH 960 0
DWIDTH 8 0
BBX 8 8 0 -2
BITMAP
08
3E
49
49
49
3E
08
00
ENDCHAR
STARTCHAR afii10039
ENCODING 1061
SWIDTH 960 0
DWIDTH 8 0
BBX 8 8 0 -2
BITMAP
42
42
24
18
24
42
42
00
ENDCHAR
STARTCHAR afii10040
ENCODING 1062
SWIDTH 960 0
DWIDTH 8 0
BBX 8 8 0 -2
BITMAP
44
44
44
44
44
44
7E
02
ENDCHAR
STARTCHAR afii10041
ENCODING 1063
SWIDTH 960 0
DWIDTH 8 0
BBX 8 8 0 -2
BITMAP
42
42
42
3E
02
02
02
00
ENDCHAR
STARTCHAR afii10042
ENCODING 1064
SWIDTH 960 0
DWIDTH 8 0
BBX 8 8 0 -2
BITMAP
49
49
49
49
49
49
7F
00
ENDCHAR
STARTCHAR afii10043
ENCODING 1065
SWIDTH 960 0
DWIDTH 8 0
BBX 8 8 0 -2
BITMAP
49
49
49
49
49
49
7F
01
ENDCHAR
STARTCHAR afii10044
ENCODING 1066
SWIDTH 960 0
DWIDTH 8 0
BBX 8 8 0 -2
BITMAP
70
50
1E
11
11
11
1E
00
ENDCHAR
STARTCHAR afii10045
ENCODING 1067
SWIDTH 960 0
DWIDTH 8 0
BBX 8 8 0 -2
BITMAP
41
41
79
45
45
45
79
00
ENDCHAR
STARTCHAR afii10046
ENCODING 1068
SWIDTH 960 0
DWIDTH 8 0
BBX 8 8 0 -2
BITMAP
40
40
7C
42
42
42
7C
00
ENDCHAR
STARTCHAR afii10047
ENCODING 1069
SWIDTH 960 0
DWIDTH 8 0
BBX 8 8 0 -2
BITMAP
3C
42
02
1E
02
42
3C
00
ENDCHAR
STARTCHAR afii10048
ENCODING 1070
SWIDTH 960 0
DWIDTH 8 0
BBX 8 8 0 -2
BITMAP
4E
51
51
71
51
51
4E
00
ENDCHAR
STARTCHAR afii10049
ENCODING 1071
SWIDTH 960 0
DWIDTH 8 0
BBX 8 8 0 -2
BITMAP
3E
42
42
3E
12
22
42
00
ENDCHAR
STARTCHAR afii10065
ENCODING 1072
SWIDTH 960 0
DWIDTH 8 0
BBX 8 8 0 -2
BITMAP
00
00
3C
02
3E
42
3E
00
ENDCHAR
STARTCHAR afii10066
ENCODING 1073
SWIDTH 960 0
DWIDTH 8 0
BBX 8 8 0 -2
BITMAP
3E
40
3C
42
42
42
3C
00
ENDCHAR
STARTCHAR afii10067
ENCODING 1074
SWIDTH 960 0
DWIDTH 8 0
BBX 8 8 0 -2
BITMAP
00
00
7C
42
7C
42
7C
00
ENDCHAR
STARTCHAR afii10068
ENCODING 1075
SWIDTH 960 0
DWIDTH 8 0
BBX 8 8 0 -2
BITMAP
00
00
7E
40
40
40
40
00
ENDCHAR
STARTCHAR afii10069
ENCODING 1076
SWIDTH 960 0
DWIDTH 8 0
BBX 8 8 0 -2
BITMAP
00
00
0E
12
22
22
7F
41
ENDCHAR
STARTCHAR afii10070
ENCODING 1077
SWIDTH 960 0
DWIDTH 8 0
BBX 8 8 0 -2
BITMAP
00
00
3C
42
7E
40
3E
00
ENDCHAR
STARTCHAR afii10072
ENCODING 1078
SWIDTH 960 0
DWIDTH 8 0
BBX 8 8 0 -2
BITMAP
00
00
49
2A
1C
2A
49
00
ENDCHAR
STARTCHAR afii10073
ENCODING 1079
SWIDTH 960 0
DWIDTH 8 0
BBX 8 8 0 -2
BITMAP
00
00
3C
42
1C
42
3C
00
ENDCHAR
STARTCHAR afii10074
ENCODING 1080
SWIDTH 960 0
DWIDTH 8 0
BBX 8 8 0 -2
BITMAP
00
00
42
46
4A
52
62
00
ENDCHAR
STARTCHAR afii10075
ENCODING 1081
SWIDTH 960 0
DWIDTH 8 0
BBX 8 8 0 -2
BITMAP
24
18
42
46
4A
52
62
00
ENDCHAR
STARTCHAR afii10076
ENCODING 1082
SWIDTH 960 0
DWIDTH 8 0
BBX 8 8 0 -2
BITMAP
00
00
42
44
78
44
42
00
ENDCHAR
STARTCHAR afii10077
ENCODING 1083
SWIDTH 960 0
DWIDTH 8 0
BBX 8 8 0 -2
BITMAP
00
00
18
24
24
42
42
00
ENDCHAR
STARTCHAR afii10078
ENCODING 1084
SWIDTH 960 0
DWIDTH 8 0
BBX 8 8 0 -2
BITMAP
00
00
41
63
55
49
41
00
ENDCHAR
STARTCHAR afii10079
ENCODING 1085
SWIDTH 960 0
DWIDTH 8 0
BBX 8 8 0 -2
BITMAP
00
00
42
42
7E
42
42
00
ENDCHAR
STARTCHAR afii10080
ENCODING 1086
SWIDTH 960 0
DWIDTH 8 0
BBX 8 8 0 -2
BITMAP
00
00
3C
42
42
42
3C
00
ENDCHAR
STARTCHAR afii10081
ENCODING 1087
SWIDTH 960 0
DWIDTH 8 0
BBX 8 8 0 -2
BITMAP
00
00
7E
42
42
42
42
00
ENDCHAR
STARTCHAR afii10082
ENCODING 1088
SWIDTH 960 0
DWIDTH 8 0
BBX 8 8 0 -2
BITMAP
00
00
7C
42
42
7C
40
40
ENDCHAR
STARTCHAR afii10083
ENCODING 1089
SWIDTH 960 0
DWIDTH 8 0
BBX 8 8 0 -2
BITMAP
00
00
3C
42
40
40
3E
00
ENDCHAR
STARTCHAR afii10084
ENCODING 1090
SWIDTH 960 0
DWIDTH 8 0
BBX 8 8 0 -2
BITMAP
00
00
7F
08
08
08
08
00
ENDCHAR
STARTCHAR afii10085
ENCODING 1091
SWIDTH 960 0
DWIDTH 8 0
BBX 8 8 0 -2
BITMAP
00
00
42
42
42
3E
02
3C
ENDCHAR
STARTCHAR afii10086
ENCODING 1092
SWIDTH 960 0
DWIDTH 8 0
BBX 8 8 0 -2
BITMAP
00
00
26
49
49
49
3E
08
ENDCHAR
STARTCHAR afii10087
ENCODING 1093
SWIDTH 960 0
DWIDTH 8 0
BBX 8 8 0 -2
BITMAP
00
00
42
24
18
24
42
00
ENDCHAR
STARTCHAR afii10088
ENCODING 1094
SWIDTH 960 0
DWIDTH 8 0
BBX 8 8 0 -2
BITMAP
00
00
44
44
44
44
7E
02
ENDCHAR
STARTCHAR afii10089
ENCODING 1095
SWIDTH 960 0
DWIDTH 8 0
BBX 8 8 0 -2
BITMAP
00
00
42
42
3E
02
02
00
ENDCHAR
STARTCHAR afii10090
ENCODING 1096
SWIDTH 960 0
DWIDTH 8 0
BBX 8 8 0 -2
BITMAP
00
00
49
49
49
49
7F
00
ENDCHAR
STARTCHAR afii10091
ENCODING 1097
SWIDTH 960 0
DWIDTH 8 0
BBX 8 8 0 -2
BITMAP
00
00
49
49
49
49
7F
01
ENDCHAR
STARTCHAR afii10092
ENCODING 1098
SWIDTH 960 0
DWIDTH 8 0
BBX 8 8 0 -2
BITMAP
00
00
70
50
1E
11
1E
00
ENDCHAR
STARTCHAR afii10093
ENCODING 1099
SWIDTH 960 0
DWIDTH 8 0
BBX 8 8 0 -2
BITMAP
00
00
41
41
79
45
79
00
ENDCHAR
STARTCHAR afii10094
ENCODING 1100
SWIDTH 960 0
DWIDTH 8 0
BBX 8 8 0 -2
BITMAP
00
00
40
40
7C
42
7C
00
ENDCHAR
STARTCHAR afii10095
ENCODING 1101
SWIDTH 960 0
DWIDTH 8 0
BBX 8 8 0 -2
BITMAP
00
00
3C
42
1E
42
3C
00
ENDCHAR
STARTCHAR afii10096
ENCODING 1102
SWIDTH 960 0
DWIDTH 8 0
BBX 8 8 0 -2
BITMAP
00
00
4C
52
72
52
4C
00
ENDCHAR
STARTCHAR afii10097
ENCODING 1103
SWIDTH 960 0
DWIDTH 8 0
BBX 8 8 0 -2
BITMAP
00
00
3E
42
3E
22
42
00
ENDCHAR
STARTCHAR uni0450
ENCODING 1104
SWIDTH 960 0
DWIDTH 8 0
BBX 8 8 0 -2
BITMAP
10
08
3C
42
7E
40
3E
00
ENDCHAR
STARTCHAR afii10071
ENCODING 1105
SWIDTH 960 0
DWIDTH 8 0
BBX 8 8 0 -2
BITMAP
24
00
3C
42
7E
40
3E
00
ENDCHAR
STARTCHAR afii10099
ENCODING 1106
SWIDTH 960 0
DWIDTH 8 0
BBX 8 8 0 -2
BITMAP
20
78
20
3C
22
22
22
04
ENDCHAR
STARTCHAR afii10100
ENCODING 1107
SWIDTH 960 0
DWIDTH 8 0
BBX 8 8 0 -2
BITMAP
04
08
00
3E
20
20
20
00
ENDCHAR
STARTCHAR afii10101
ENCODING 1108
SWIDTH 960 0
DWIDTH 8 0
BBX 8 8 0 -2
BITMAP
00
00
3C
42
78
42
3C
00
ENDCHAR
STARTCHAR afii10102
ENCODING 1109
SWIDTH 960 0
DWIDTH 8 0
BBX 8 8 0 -2
BITMAP
00
00
3C
40
3C
02
7C
00
ENDCHAR
STARTCHAR afii10103
ENCODING 1110
SWIDTH 960 0
DWIDTH 8 0
BBX 8 8 0 -2
BITMAP
18
00
38
08
08
08
3E
00
ENDCHAR
STARTCHAR afii10104
ENCODING 1111
SWIDTH 960 0
DWIDTH 8 0
BBX 8 8 0 -2
BITMAP
24
00
38
08
08
08
3E
00
ENDCHAR
STARTCHAR afii10105
ENCODING 1112
SWIDTH 960 0
DWIDTH 8 0
BBX 8 8 0 -2
BITMAP
0C
00
1C
04
04
04
04
38
ENDCHAR
STARTCHAR afii10106
ENCODING 1113
SWIDTH 960 0
DWIDTH 8 0
BBX 8 8 0 -2
BITMAP
00
00
38
48
4E
49
4E
00
ENDCHAR
STARTCHAR afii10107
ENCODING 1114
SWIDTH 960 0
DWIDTH 8 0
BBX 8 8 0 -2
BITMAP
00
00
48
48
7E
49
4E
00
ENDCHAR
STARTCHAR afii10108
ENCODING 1115
SWIDTH 960 0
DWIDTH 8 0
BBX 8 8 0 -2
BITMAP
20
78
20
3C
22
22
22
00
ENDCHAR
STARTCHAR afii10109
ENCODING 1116
SWIDTH 960 0
DWIDTH 8 0
BBX 8 8 0 -2
BITMAP
04
08
42
44
78
44
42
00
ENDCHAR
STARTCHAR uni045D
ENCODING 1117
SWIDTH 960 0
DWIDTH 8 0
BBX 8 8 0 -2
BITMAP
10
08
42
46
4A
52
62
00
ENDCHAR
STARTCHAR afii10110
ENCODING 1118
SWIDTH 960 0
DWIDTH 8 0
BBX 8 8 0 -2
BITMAP
24
18
42
42
42
3E
02
3C
ENDCHAR
STARTCHAR afii10193
ENCODING 1119
SWIDTH 960 0
DWIDTH 8 0
BBX 8 8 0 -2
BITMAP
00
00
42
42
42
42
7E
18
ENDCHAR
STARTCHAR afii10050
ENCODING 1168
SWIDTH 960 0
DWIDTH 8 0
BBX 8 8 0 -2
BITMAP
02
7E
40
40
40
40
40
00
ENDCHAR
STARTCHAR afii10098
ENCODING 1169
SWIDTH 960 0
DWIDTH 8 0
BBX 8 8 0 -2
BITMAP
00
02
7E
40
40
40
40
00
ENDCHAR
STARTCHAR afii57664
ENCODING 1488
SWIDTH 960 0
DWIDTH 8 0
BBX 8 8 0 -2
BITMAP
00
42
22
54
48
44
62
00
ENDCHAR
STARTCHAR afii57665
ENCODING 1489
SWIDTH 960 0
DWIDTH 8 0
BBX 8 8 0 -2
BITMAP
00
78
04
04
04
04
7E
00
ENDCHAR
STARTCHAR afii57666
ENCODING 1490
SWIDTH 960 0
DWIDTH 8 0
BBX 8 8 0 -2
BITMAP
00
38
04
04
0C
12
62
00
ENDCHAR
STARTCHAR afii57667
ENCODING 1491
SWIDTH 960 0
DWIDTH 8 0
BBX 8 8 0 -2
BITMAP
00
7E
04
04
04
04
04
00
ENDCHAR
STARTCHAR afii57668
ENCODING 1492
SWIDTH 960 0
DWIDTH 8 0
BBX 8 8 0 -2
BITMAP
00
7C
02
02
42
42
42
00
ENDCHAR
STARTCHAR afii57669
ENCODING 1493
SWIDTH 960 0
DWIDTH 8 0
BBX 8 8 0 -2
BITMAP
00
38
04
04
04
04
04
00
ENDCHAR
STARTCHAR afii57670
ENCODING 1494
SWIDTH 960 0
DWIDTH 8 0
BBX 8 8 0 -2
BITMAP
00
3E
08
08
04
04
04
00
ENDCHAR
STARTCHAR afii57671
ENCODING 1495
SWIDTH 960 0
DWIDTH 8 0
BBX 8 8 0 -2
BITMAP
00
7C
42
42
42
42
42
00
ENDCHAR
STARTCHAR afii57672
ENCODING 1496
SWIDTH 960 0
DWIDTH 8 0
BBX 8 8 0 -2
BITMAP
00
4C
52
52
42
42
3C
00
ENDCHAR
STARTCHAR afii57673
ENCODING 1497
SWIDTH 960 0
DWIDTH 8 0
BBX 8 8 0 -2
BITMAP
00
38
04
04
04
00
00
00
ENDCHAR
STARTCHAR afii57674
ENCODING 1498
SWIDTH 960 0
DWIDTH 8 0
BBX 8 8 0 -2
BITMAP
00
7E
04
04
04
04
04
06
ENDCHAR
STARTCHAR afii57675
ENCODING 1499
SWIDTH 960 0
DWIDTH 8 0
BBX 8 8 0 -2
BITMAP
00
7C
02
02
02
02
7C
00
ENDCHAR
STARTCHAR afii57676
ENCODING 1500
SWIDTH 960 0
DWIDTH 8 0
BBX 8 8 0 -2
BITMAP
40
7C
02
02
04
08
08
00
ENDCHAR
STARTCHAR afii57677
ENCODING 1501
SWIDTH 960 0
DWIDTH 8 0
BBX 8 8 0 -2
BITMAP
00
7C
42
42
42
42
7E
00
ENDCHAR
STARTCHAR afii57678
ENCODING 1502
SWIDTH 960 0
DWIDTH 8 0
BBX 8 8 0 -2
BITMAP
00
4C
76
22
62
42
4E
00
ENDCHAR
STARTCHAR afii57679
ENCODING 1503
SWIDTH 960 0
DWIDTH 8 0
BBX 8 8 0 -2
BITMAP
00
1C
04
04
04
04
04
07
ENDCHAR
STARTCHAR afii57680
ENCODING 1504
SWIDTH 960 0
DWIDTH 8 0
BBX 8 8 0 -2
BITMAP
00
18
04
04
04
04
3C
00
ENDCHAR
STARTCHAR afii57681
ENCODING 1505
SWIDTH 960 0
DWIDTH 8 0
BBX 8 8 0 -2
BITMAP
00
7C
42
42
42
42
3C
00
ENDCHAR
STARTCHAR afii57682
ENCODING 1506
SWIDTH 960 0
DWIDTH 8 0
BBX 8 8 0 -2
BITMAP
00
12
12
12
12
12
7C
00
ENDCHAR
STARTCHAR afii57683
ENCODING 1507
SWIDTH 960 0
DWIDTH 8 0
BBX 8 8 0 -2
BITMAP
00
7C
42
42
32
02
02
03
ENDCHAR
STARTCHAR afii57684
ENCODING 1508
SWIDTH 960 0
DWIDTH 8 0
BBX 8 8 0 -2
BITMAP
00
7C
42
42
32
02
7E
00
ENDCHAR
STARTCHAR afii57685
ENCODING 1509
SWIDTH 960 0
DWIDTH 8 0
BBX 8 8 0 -2
BITMAP
00
42
42
2C
30
10
10
08
ENDCHAR
STARTCHAR afii57686
ENCODING 1510
SWIDTH 960 0
DWIDTH 8 0
BBX 8 8 0 -2
BITMAP
00
42
22
14
08
04
7E
00
ENDCHAR
STARTCHAR afii57687
ENCODING 1511
SWIDTH 960 0
DWIDTH 8 0
BBX 8 8 0 -2
BITMAP
00
7E
02
42
44
48
4C
40
ENDCHAR
STARTCHAR afii57688
ENCODING 1512
SWIDTH 960 0
DWIDTH 8 0
BBX 8 8 0 -2
BITMAP
00
7C
02
02
02
02
02
00
ENDCHAR
STARTCHAR afii57689
ENCODING 1513
SWIDTH 960 0
DWIDTH 8 0
BBX 8 8 0 -2
BITMAP
00
49
49
49
71
41
3E
00
ENDCHAR
STARTCHAR afii57690
ENCODING 1514
SWIDTH 960 0
DWIDTH 8 0
BBX 8 8 0 -2
BITMAP
00
7C
22
22
22
22
62
00
ENDCHAR
STARTCHAR afii57403
ENCODING 1563
SWIDTH 960 0
DWIDTH 8 0
BBX 8 8 0 -2
BITMAP
08
10
18
18
00
18
00
00
ENDCHAR
STARTCHAR afii57407
ENCODING 1567
SWIDTH 960 0
DWIDTH 8 0
BBX 8 8 0 -2
BITMAP
38
44
40
20
10
00
10
00
ENDCHAR
STARTCHAR afii57409
ENCODING 1569
SWIDTH 960 0
DWIDTH 8 0
BBX 8 8 0 -2
BITMAP
00
00
04
08
06
08
00
00
ENDCHAR
STARTCHAR afii57410
ENCODING 1570
SWIDTH 960 0
DWIDTH 8 0
BBX 8 8 0 -2
BITMAP
14
28
08
08
08
08
00
00
ENDCHAR
STARTCHAR afii57411
ENCODING 1571
SWIDTH 960 0
DWIDTH 8 0
BBX 8 8 0 -2
BITMAP
30
68
08
08
08
08
00
00
ENDCHAR
STARTCHAR afii57412
ENCODING 1572
SWIDTH 960 0
DWIDTH 8 0
BBX 8 8 0 -2
BITMAP
18
30
02
05
03
01
22
1C
ENDCHAR
STARTCHAR afii57415
ENCODING 1575
SWIDTH 960 0
DWIDTH 8 0
BBX 8 8 0 -2
BITMAP
08
08
08
08
08
08
00
00
ENDCHAR
STARTCHAR afii57416
ENCODING 1576
SWIDTH 960 0
DWIDTH 8 0
BBX 8 8 0 -2
BITMAP
00
00
81
81
7E
00
08
00
ENDCHAR
STARTCHAR afii57417
ENCODING 1577
SWIDTH 960 0
DWIDTH 8 0
BBX 8 8 0 -2
BITMAP
0A
00
06
09
07
00
00
00
ENDCHAR
STARTCHAR afii57418
ENCODING 1578
SWIDTH 960 0
DWIDTH 8 0
BBX 8 8 0 -2
BITMAP
00
14
81
81
7E
00
00
00
ENDCHAR
STARTCHAR afii57419
ENCODING 1579
SWIDTH 960 0
DWIDTH 8 0
BBX 8 8 0 -2
BITMAP
08
14
81
81
7E
00
00
00
ENDCHAR
STARTCHAR afii57420
ENCODING 1580
SWIDTH 960 0
DWIDTH 8 0
BBX 8 8 0 -2
BITMAP
00
00
60
90
3F
40
48
3F
ENDCHAR
STARTCHAR afii57421
ENCODING 1581
SWIDTH 960 0
DWIDTH 8 0
BBX 8 8 0 -2
BITMAP
00
00
60
90
3F
40
40
3F
ENDCHAR
STARTCHAR afii57422
ENCODING 1582
SWIDTH 960 0
DWIDTH 8 0
BBX 8 8 0 -2
BITMAP
00
08
60
90
3F
40
40
3F
ENDCHAR
STARTCHAR afii57423
ENCODING 1583
SWIDTH 960 0
DWIDTH 8 0
BBX 8 8 0 -2
BITMAP
00
02
01
09
0F
00
00
00
ENDCHAR
STARTCHAR afii57424
ENCODING 1584
SWIDTH 960 0
DWIDTH 8 0
BBX 8 8 0 -2
BITMAP
08
02
01
09
0F
00
00
00
ENDCHAR
STARTCHAR afii57425
ENCODING 1585
SWIDTH 960 0
DWIDTH 8 0
BBX 8 8 0 -2
BITMAP
00
00
00
02
01
01
22
1C
ENDCHAR
STARTCHAR afii57426
ENCODING 1586
SWIDTH 960 0
DWIDTH 8 0
BBX 8 8 0 -2
BITMAP
00
08
00
02
01
01
22
1C
ENDCHAR
STARTCHAR afii57427
ENCODING 1587
SWIDTH 960 0
DWIDTH 8 0
BBX 8 8 0 -2
BITMAP
00
00
00
25
1A
20
C0
00
ENDCHAR
STARTCHAR afii57428
ENCODING 1588
SWIDTH 960 0
DWIDTH 8 0
BBX 8 8 0 -2
BITMAP
04
0A
00
25
1A
20
C0
00
ENDCHAR
STARTCHAR afii57429
ENCODING 1589
SWIDTH 960 0
DWIDTH 8 0
BBX 8 8 0 -2
BITMAP
00
00
06
29
1E
10
E0
00
ENDCHAR
STARTCHAR afii57430
ENCODING 1590
SWIDTH 960 0
DWIDTH 8 0
BBX 8 8 0 -2
BITMAP
08
00
06
29
1E
10
E0
00
ENDCHAR
STARTCHAR afii57431
ENCODING 1591
SWIDTH 960 0
DWIDTH 8 0
BBX 8 8 0 -2
BITMAP
10
10
16
19
FE
00
00
00
ENDCHAR
STARTCHAR afii57432
ENCODING 1592
SWIDTH 960 0
DWIDTH 8 0
BBX 8 8 0 -2
BITMAP
14
10
16
19
FE
00
00
00
ENDCHAR
STARTCHAR afii57433
ENCODING 1593
SWIDTH 960 0
DWIDTH 8 0
BBX 8 8 0 -2
BITMAP
00
18
20
1C
20
40
40
3E
ENDCHAR
STARTCHAR afii57434
ENCODING 1594
SWIDTH 960 0
DWIDTH 8 0
BBX 8 8 0 -2
BITMAP
40
18
20
1C
20
40
40
3E
ENDCHAR
STARTCHAR afii57440
ENCODING 1600
SWIDTH 960 0
DWIDTH 8 0
BBX 8 8 0 -2
BITMAP
00
00
00
00
FF
00
00
00
ENDCHAR
STARTCHAR afii57441
ENCODING 1601
SWIDTH 960 0
DWIDTH 8 0
BBX 8 8 0 -2
BITMAP
08
02
45
83
7E
00
00
00
ENDCHAR
STARTCHAR afii57442
ENCODING 1602
SWIDTH 960 0
DWIDTH 8 0
BBX 8 8 0 -2
BITMAP
00
28
02
05
23
41
42
3C
ENDCHAR
STARTCHAR afii57443
ENCODING 1603
SWIDTH 960 0
DWIDTH 8 0
BBX 8 8 0 -2
BITMAP
0D
19
41
81
7E
00
00
00
ENDCHAR
STARTCHAR afii57444
ENCODING 1604
SWIDTH 960 0
DWIDTH 8 0
BBX 8 8 0 -2
BITMAP
01
01
01
11
21
22
1C
00
ENDCHAR
STARTCHAR afii57445
ENCODING 1605
SWIDTH 960 0
DWIDTH 8 0
BBX 8 8 0 -2
BITMAP
00
00
06
01
0F
10
08
08
ENDCHAR
STARTCHAR afii57446
ENCODING 1606
SWIDTH 960 0
DWIDTH 8 0
BBX 8 8 0 -2
BITMAP
00
00
08
21
41
42
3C
00
ENDCHAR
STARTCHAR afii57470
ENCODING 1607
SWIDTH 960 0
DWIDTH 8 0
BBX 8 8 0 -2
BITMAP
00
00
06
09
07
00
00
00
ENDCHAR
STARTCHAR afii57448
ENCODING 1608
SWIDTH 960 0
DWIDTH 8 0
BBX 8 8 0 -2
BITMAP
00
00
02
05
03
01
22
1C
ENDCHAR
STARTCHAR afii57449
ENCODING 1609
SWIDTH 960 0
DWIDTH 8 0
BBX 8 8 0 -2
BITMAP
00
03
44
82
81
7E
00
00
ENDCHAR
STARTCHAR afii57450
ENCODING 1610
SWIDTH 960 0
DWIDTH 8 0
BBX 8 8 0 -2
BITMAP
00
03
44
82
81
7E
00
24
ENDCHAR
STARTCHAR afii57457
ENCODING 1617
SWIDTH 960 0
DWIDTH 8 0
BBX 8 8 0 -2
BITMAP
54
28
00
00
00
00
00
00
ENDCHAR
STARTCHAR afii57392
ENCODING 1632
SWIDTH 960 0
DWIDTH 8 0
BBX 8 8 0 -2
BITMAP
00
00
00
10
38
10
00
00
ENDCHAR
STARTCHAR afii57393
ENCODING 1633
SWIDTH 960 0
DWIDTH 8 0
BBX 8 8 0 -2
BITMAP
00
10
10
10
08
08
08
00
ENDCHAR
STARTCHAR afii57394
ENCODING 1634
SWIDTH 960 0
DWIDTH 8 0
BBX 8 8 0 -2
BITMAP
00
24
78
20
10
10
10
00
ENDCHAR
STARTCHAR afii57395
ENCODING 1635
SWIDTH 960 0
DWIDTH 8 0
BBX 8 8 0 -2
BITMAP
00
4A
74
20
10
10
10
00
ENDCHAR
STARTCHAR afii57396
ENCODING 1636
SWIDTH 960 0
DWIDTH 8 0
BBX 8 8 0 -2
BITMAP
00
10
20
30
10
20
38
00
ENDCHAR
STARTCHAR afii57397
ENCODING 1637
SWIDTH 960 0
DWIDTH 8 0
BBX 8 8 0 -2
BITMAP
00
08
14
24
24
18
00
00
ENDCHAR
STARTCHAR afii57398
ENCODING 1638
SWIDTH 960 0
DWIDTH 8 0
BBX 8 8 0 -2
BITMAP
00
3C
04
04
02
02
02
00
ENDCHAR
STARTCHAR afii57399
ENCODING 1639
SWIDTH 960 0
DWIDTH 8 0
BBX 8 8 0 -2
BITMAP
00
22
22
14
14
08
08
00
ENDCHAR
STARTCHAR afii57400
ENCODING 1640
SWIDTH 960 0
DWIDTH 8 0
BBX 8 8 0 -2
BITMAP
00
10
10
28
28
44
44
00
ENDCHAR
STARTCHAR afii57401
ENCODING 1641
SWIDTH 960 0
DWIDTH 8 0
BBX 8 8 0 -2
BITMAP
00
18
24
1C
04
02
02
00
ENDCHAR
STARTCHAR afii57381
ENCODING 1642
SWIDTH 960 0
DWIDTH 8 0
BBX 8 8 0 -2
BITMAP
00
62
64
08
10
26
46
00
ENDCHAR
STARTCHAR uni066C
ENCODING 1644
SWIDTH 960 0
DWIDTH 8 0
BBX 8 8 0 -2
BITMAP
00
00
08
10
18
18
00
00
ENDCHAR
STARTCHAR Wgrave
ENCODING 7808
SWIDTH 960 0
DWIDTH 8 0
BBX 8 8 0 -2
BITMAP
51
49
41
49
49
49
36
00
ENDCHAR
STARTCHAR wgrave
ENCODING 7809
SWIDTH 960 0
DWIDTH 8 0
BBX 8 8 0 -2
BITMAP
10
08
41
49
49
49
36
00
ENDCHAR
STARTCHAR Wacute
ENCODING 7810
SWIDTH 960 0
DWIDTH 8 0
BBX 8 8 0 -2
BITMAP
45
49
41
49
49
49
36
00
ENDCHAR
STARTCHAR wacute
ENCODING 7811
SWIDTH 960 0
DWIDTH 8 0
BBX 8 8 0 -2
BITMAP
04
08
41
49
49
49
36
00
ENDCHAR
STARTCHAR Wdieresis
ENCODING 7812
SWIDTH 960 0
DWIDTH 8 0
BBX 8 8 0 -2
BITMAP
55
41
41
49
49
49
36
00
ENDCHAR
STARTCHAR wdieresis
ENCODING 7813
SWIDTH 960 0
DWIDTH 8 0
BBX 8 8 0 -2
BITMAP
14
00
41
49
49
49
36
00
ENDCHAR
STARTCHAR Ygrave
ENCODING 7922
SWIDTH 960 0
DWIDTH 8 0
BBX 8 8 0 -2
BITMAP
10
08
41
22
14
08
08
08
ENDCHAR
STARTCHAR ygrave
ENCODING 7923
SWIDTH 960 0
DWIDTH 8 0
BBX 8 8 0 -2
BITMAP
10
08
42
42
42
3E
02
3C
ENDCHAR
STARTCHAR endash
ENCODING 8211
SWIDTH 960 0
DWIDTH 8 0
BBX 8 8 0 -2
BITMAP
00
00
00
3C
00
00
00
00
ENDCHAR
STARTCHAR emdash
ENCODING 8212
SWIDTH 960 0
DWIDTH 8 0
BBX 8 8 0 -2
BITMAP
00
00
00
3C
00
00
00
00
ENDCHAR
STARTCHAR underscoredbl
ENCODING 8215
SWIDTH 960 0
DWIDTH 8 0
BBX 8 8 0 -2
BITMAP
00
00
00
00
00
3E
00
3E
ENDCHAR
STARTCHAR quoteleft
ENCODING 8216
SWIDTH 960 0
DWIDTH 8 0
BBX 8 8 0 -2
BITMAP
08
10
10
00
00
00
00
00
ENDCHAR
STARTCHAR quoteright
ENCODING 8217
SWIDTH 960 0
DWIDTH 8 0
BBX 8 8 0 -2
BITMAP
08
08
10
00
00
00
00
00
ENDCHAR
STARTCHAR quotesinglbase
ENCODING 8218
SWIDTH 960 0
DWIDTH 8 0
BBX 8 8 0 -2
BITMAP
00
00
00
00
00
08
08
10
ENDCHAR
STARTCHAR quotedblleft
ENCODING 8220
SWIDTH 960 0
DWIDTH 8 0
BBX 8 8 0 -2
BITMAP
12
24
24
00
00
00
00
00
ENDCHAR
STARTCHAR quotedblright
ENCODING 8221
SWIDTH 960 0
DWIDTH 8 0
BBX 8 8 0 -2
BITMAP
24
24
48
00
00
00
00
00
ENDCHAR
STARTCHAR quotedblbase
ENCODING 8222
SWIDTH 960 0
DWIDTH 8 0
BBX 8 8 0 -2
BITMAP
00
00
00
00
00
24
24
48
ENDCHAR
STARTCHAR dagger
ENCODING 8224
SWIDTH 960 0
DWIDTH 8 0
BBX 8 8 0 -2
BITMAP
08
08
3E
08
08
08
08
00
ENDCHAR
STARTCHAR daggerdbl
ENCODING 8225
SWIDTH 960 0
DWIDTH 8 0
BBX 8 8 0 -2
BITMAP
08
08
3E
08
3E
08
08
00
ENDCHAR
STARTCHAR bullet
ENCODING 8226
SWIDTH 960 0
DWIDTH 8 0
BBX 8 8 0 -2
BITMAP
00
00
18
18
00
00
00
00
ENDCHAR
STARTCHAR ellipsis
ENCODING 8230
SWIDTH 960 0
DWIDTH 8 0
BBX 8 8 0 -2
BITMAP
00
00
00
00
00
49
49
00
ENDCHAR
STARTCHAR perthousand
ENCODING 8240
SWIDTH 960 0
DWIDTH 8 0
BBX 8 8 0 -2
BITMAP
00
62
64
08
10
20
5B
1B
ENDCHAR
STARTCHAR guilsinglleft
ENCODING 8249
SWIDTH 960 0
DWIDTH 8 0
BBX 8 8 0 -2
BITMAP
00
08
10
20
10
08
00
00
ENDCHAR
STARTCHAR guilsinglright
ENCODING 8250
SWIDTH 960 0
DWIDTH 8 0
BBX 8 8 0 -2
BITMAP
00
10
08
04
08
10
00
00
ENDCHAR
STARTCHAR exclamdbl
ENCODING 8252
SWIDTH 960 0
DWIDTH 8 0
BBX 8 8 0 -2
BITMAP
24
24
24
24
24
00
24
00
ENDCHAR
STARTCHAR fraction
ENCODING 8260
SWIDTH 960 0
DWIDTH 8 0
BBX 8 8 0 -2
BITMAP
02
04
08
10
20
40
00
00
ENDCHAR
STARTCHAR uni207F
ENCODING 8319
SWIDTH 960 0
DWIDTH 8 0
BBX 8 8 0 -2
BITMAP
38
24
24
24
00
00
00
00
ENDCHAR
STARTCHAR peseta
ENCODING 8359
SWIDTH 960 0
DWIDTH 8 0
BBX 8 8 0 -2
BITMAP
70
48
48
74
4E
44
46
00
ENDCHAR
STARTCHAR afii57636
ENCODING 8362
SWIDTH 960 0
DWIDTH 8 0
BBX 8 8 0 -2
BITMAP
00
7D
45
55
55
51
5F
00
ENDCHAR
STARTCHAR Euro
ENCODING 8364
SWIDTH 960 0
DWIDTH 8 0
BBX 8 8 0 -2
BITMAP
1E
21
7C
20
7C
21
1E
00
ENDCHAR
STARTCHAR afii61289
ENCODING 8467
SWIDTH 960 0
DWIDTH 8 0
BBX 8 8 0 -2
BITMAP
10
28
28
28
28
10
6C
00
ENDCHAR
STARTCHAR afii61352
ENCODING 8470
SWIDTH 960 0
DWIDTH 8 0
BBX 8 8 0 -2
BITMAP
4B
6B
68
5B
58
48
48
00
ENDCHAR
STARTCHAR trademark
ENCODING 8482
SWIDTH 960 0
DWIDTH 8 0
BBX 8 8 0 -2
BITMAP
79
2F
29
29
00
00
00
00
ENDCHAR
STARTCHAR arrowleft
ENCODING 8592
SWIDTH 960 0
DWIDTH 8 0
BBX 8 8 0 -2
BITMAP
00
10
20
7E
20
10
00
00
ENDCHAR
STARTCHAR arrowup
ENCODING 8593
SWIDTH 960 0
DWIDTH 8 0
BBX 8 8 0 -2
BITMAP
08
1C
2A
08
08
08
08
00
ENDCHAR
STARTCHAR arrowright
ENCODING 8594
SWIDTH 960 0
DWIDTH 8 0
BBX 8 8 0 -2
BITMAP
00
08
04
7E
04
08
00
00
ENDCHAR
STARTCHAR arrowdown
ENCODING 8595
SWIDTH 960 0
DWIDTH 8 0
BBX 8 8 0 -2
BITMAP
08
08
08
08
2A
1C
08
00
ENDCHAR
STARTCHAR arrowboth
ENCODING 8596
SWIDTH 960 0
DWIDTH 8 0
BBX 8 8 0 -2
BITMAP
00
24
42
FF
42
24
00
00
ENDCHAR
STARTCHAR arrowupdn
ENCODING 8597
SWIDTH 960 0
DWIDTH 8 0
BBX 8 8 0 -2
BITMAP
08
1C
2A
08
08
2A
1C
08
ENDCHAR
STARTCHAR arrowupdnbse
ENCODING 8616
SWIDTH 960 0
DWIDTH 8 0
BBX 8 8 0 -2
BITMAP
08
1C
2A
08
08
2A
1C
7F
ENDCHAR
STARTCHAR uni2219
ENCODING 8729
SWIDTH 960 0
DWIDTH 8 0
BBX 8 8 0 -2
BITMAP
00
00
00
10
10
00
00
00
ENDCHAR
STARTCHAR radical
ENCODING 8730
SWIDTH 960 0
DWIDTH 8 0
BBX 8 8 0 -2
BITMAP
0E
08
08
08
68
18
08
00
ENDCHAR
STARTCHAR infinity
ENCODING 8734
SWIDTH 960 0
DWIDTH 8 0
BBX 8 8 0 -2
BITMAP
00
36
49
49
49
36
00
00
ENDCHAR
STARTCHAR orthogonal
ENCODING 8735
SWIDTH 960 0
DWIDTH 8 0
BBX 8 8 0 -2
BITMAP
00
20
20
20
20
3E
00
00
ENDCHAR
STARTCHAR intersection
ENCODING 8745
SWIDTH 960 0
DWIDTH 8 0
BBX 8 8 0 -2
BITMAP
3C
42
42
42
42
42
42
00
ENDCHAR
STARTCHAR integral
ENCODING 8747
SWIDTH 960 0
DWIDTH 8 0
BBX 8 8 0 -2
BITMAP
04
0A
0A
08
08
28
28
10
ENDCHAR
STARTCHAR approxequal
ENCODING 8776
SWIDTH 960 0
DWIDTH 8 0
BBX 8 8 0 -2
BITMAP
00
32
4C
00
32
4C
00
00
ENDCHAR
STARTCHAR notequal
ENCODING 8800
SWIDTH 960 0
DWIDTH 8 0
BBX 8 8 0 -2
BITMAP
00
08
7C
10
7C
20
00
00
ENDCHAR
STARTCHAR equivalence
ENCODING 8801
SWIDTH 960 0
DWIDTH 8 0
BBX 8 8 0 -2
BITMAP
00
7E
00
7E
00
7E
00
00
ENDCHAR
STARTCHAR lessequal
ENCODING 8804
SWIDTH 960 0
DWIDTH 8 0
BBX 8 8 0 -2
BITMAP
06
18
60
18
06
00
7E
00
ENDCHAR
STARTCHAR greaterequal
ENCODING 8805
SWIDTH 960 0
DWIDTH 8 0
BBX 8 8 0 -2
BITMAP
60
18
06
18
60
00
7E
00
ENDCHAR
STARTCHAR house
ENCODING 8962
SWIDTH 960 0
DWIDTH 8 0
BBX 8 8 0 -2
BITMAP
00
08
14
22
22
22
3E
00
ENDCHAR
STARTCHAR revlogicalnot
ENCODING 8976
SWIDTH 960 0
DWIDTH 8 0
BBX 8 8 0 -2
BITMAP
00
00
3E
20
20
20
00
00
ENDCHAR
STARTCHAR uni2318
ENCODING 8984
SWIDTH 960 0
DWIDTH 8 0
BBX 8 8 0 -2
BITMAP
77
55
7F
14
7F
55
77
00
ENDCHAR
STARTCHAR integraltp
ENCODING 8992
SWIDTH 960 0
DWIDTH 8 0
BBX 8 8 0 -2
BITMAP
04
0A
08
08
08
08
08
08
ENDCHAR
STARTCHAR integralbt
ENCODING 8993
SWIDTH 960 0
DWIDTH 8 0
BBX 8 8 0 -2
BITMAP
08
08
08
08
08
08
28
10
ENDCHAR
STARTCHAR SF100000
ENCODING 9472
SWIDTH 960 0
DWIDTH 8 0
BBX 8 8 0 -2
BITMAP
00
00
00
FF
00
00
00
00
ENDCHAR
STARTCHAR SF110000
ENCODING 9474
SWIDTH 960 0
DWIDTH 8 0
BBX 8 8 0 -2
BITMAP
08
08
08
08
08
08
08
08
ENDCHAR
STARTCHAR SF010000
ENCODING 9484
SWIDTH 960 0
DWIDTH 8 0
BBX 8 8 0 -2
BITMAP
00
00
00
0F
08
08
08
08
ENDCHAR
STARTCHAR SF030000
ENCODING 9488
SWIDTH 960 0
DWIDTH 8 0
BBX 8 8 0 -2
BITMAP
00
00
00
F8
08
08
08
08
ENDCHAR
STARTCHAR SF020000
ENCODING 9492
SWIDTH 960 0
DWIDTH 8 0
BBX 8 8 0 -2
BITMAP
08
08
08
0F
00
00
00
00
ENDCHAR
STARTCHAR SF040000
ENCODING 9496
SWIDTH 960 0
DWIDTH 8 0
BBX 8 8 0 -2
BITMAP
08
08
08
F8
00
00
00
00
ENDCHAR
STARTCHAR SF080000
ENCODING 9500
SWIDTH 960 0
DWIDTH 8 0
BBX 8 8 0 -2
BITMAP
08
08
08
0F
08
08
08
08
ENDCHAR
STARTCHAR SF090000
ENCODING 9508
SWIDTH 960 0
DWIDTH 8 0
BBX 8 8 0 -2
BITMAP
08
08
08
F8
08
08
08
08
ENDCHAR
STARTCHAR SF060000
ENCODING 9516
SWIDTH 960 0
DWIDTH 8 0
BBX 8 8 0 -2
BITMAP
00
00
00
FF
08
08
08
08
ENDCHAR
STARTCHAR SF070000
ENCODING 9524
SWIDTH 960 0
DWIDTH 8 0
BBX 8 8 0 -2
BITMAP
08
08
08
FF
00
00
00
00
ENDCHAR
STARTCHAR SF050000
ENCODING 9532
SWIDTH 960 0
DWIDTH 8 0
BBX 8 8 0 -2
BITMAP
08
08
08
FF
08
08
08
08
ENDCHAR
STARTCHAR SF430000
ENCODING 9552
SWIDTH 960 0
DWIDTH 8 0
BBX 8 8 0 -2
BITMAP
00
00
FF
00
FF
00
00
00
ENDCHAR
STARTCHAR SF240000
ENCODING 9553
SWIDTH 960 0
DWIDTH 8 0
BBX 8 8 0 -2
BITMAP
14
14
14
14
14
14
14
14
ENDCHAR
STARTCHAR SF510000
ENCODING 9554
SWIDTH 960 0
DWIDTH 8 0
BBX 8 8 0 -2
BITMAP
00
00
0F
08
0F
08
08
08
ENDCHAR
STARTCHAR SF520000
ENCODING 9555
SWIDTH 960 0
DWIDTH 8 0
BBX 8 8 0 -2
BITMAP
00
00
1F
10
17
14
14
14
ENDCHAR
STARTCHAR SF390000
ENCODING 9556
SWIDTH 960 0
DWIDTH 8 0
BBX 8 8 0 -2
BITMAP
00
00
1F
10
17
14
14
14
ENDCHAR
STARTCHAR SF220000
ENCODING 9557
SWIDTH 960 0
DWIDTH 8 0
BBX 8 8 0 -2
BITMAP
00
00
F8
08
F8
08
08
08
ENDCHAR
STARTCHAR SF210000
ENCODING 9558
SWIDTH 960 0
DWIDTH 8 0
BBX 8 8 0 -2
BITMAP
00
00
00
FC
14
14
14
14
ENDCHAR
STARTCHAR SF250000
ENCODING 9559
SWIDTH 960 0
DWIDTH 8 0
BBX 8 8 0 -2
BITMAP
00
00
FC
04
F4
14
14
14
ENDCHAR
STARTCHAR SF500000
ENCODING 9560
SWIDTH 960 0
DWIDTH 8 0
BBX 8 8 0 -2
BITMAP
08
08
0F
08
0F
00
00
00
ENDCHAR
STARTCHAR SF490000
ENCODING 9561
SWIDTH 960 0
DWIDTH 8 0
BBX 8 8 0 -2
BITMAP
14
14
14
1F
00
00
00
00
ENDCHAR
STARTCHAR SF380000
ENCODING 9562
SWIDTH 960 0
DWIDTH 8 0
BBX 8 8 0 -2
BITMAP
14
14
17
10
1F
00
00
00
ENDCHAR
STARTCHAR SF280000
ENCODING 9563
SWIDTH 960 0
DWIDTH 8 0
BBX 8 8 0 -2
BITMAP
08
08
F8
08
F8
00
00
00
ENDCHAR
STARTCHAR SF270000
ENCODING 9564
SWIDTH 960 0
DWIDTH 8 0
BBX 8 8 0 -2
BITMAP
14
14
14
FC
00
00
00
00
ENDCHAR
STARTCHAR SF260000
ENCODING 9565
SWIDTH 960 0
DWIDTH 8 0
BBX 8 8 0 -2
BITMAP
14
14
F4
04
FC
00
00
00
ENDCHAR
STARTCHAR SF360000
ENCODING 9566
SWIDTH 960 0
DWIDTH 8 0
BBX 8 8 0 -2
BITMAP
08
08
0F
08
0F
08
08
08
ENDCHAR
STARTCHAR SF370000
ENCODING 9567
SWIDTH 960 0
DWIDTH 8 0
BBX 8 8 0 -2
BITMAP
14
14
14
17
14
14
14
14
ENDCHAR
STARTCHAR SF420000
ENCODING 9568
SWIDTH 960 0
DWIDTH 8 0
BBX 8 8 0 -2
BITMAP
14
14
17
10
17
14
14
14
ENDCHAR
STARTCHAR SF190000
ENCODING 9569
SWIDTH 960 0
DWIDTH 8 0
BBX 8 8 0 -2
BITMAP
08
08
F8
08
F8
08
08
08
ENDCHAR
STARTCHAR SF200000
ENCODING 9570
SWIDTH 960 0
DWIDTH 8 0
BBX 8 8 0 -2
BITMAP
14
14
14
F4
14
14
14
14
ENDCHAR
STARTCHAR SF230000
ENCODING 9571
SWIDTH 960 0
DWIDTH 8 0
BBX 8 8 0 -2
BITMAP
14
14
F4
04
F4
14
14
14
ENDCHAR
STARTCHAR SF470000
ENCODING 9572
SWIDTH 960 0
DWIDTH 8 0
BBX 8 8 0 -2
BITMAP
00
00
FF
00
FF
08
08
08
ENDCHAR
STARTCHAR SF480000
ENCODING 9573
SWIDTH 960 0
DWIDTH 8 0
BBX 8 8 0 -2
BITMAP
00
00
00
FF
14
14
14
14
ENDCHAR
STARTCHAR SF410000
ENCODING 9574
SWIDTH 960 0
DWIDTH 8 0
BBX 8 8 0 -2
BITMAP
00
00
FF
00
F7
14
14
14
ENDCHAR
STARTCHAR SF450000
ENCODING 9575
SWIDTH 960 0
DWIDTH 8 0
BBX 8 8 0 -2
BITMAP
08
08
FF
00
FF
00
00
00
ENDCHAR
STARTCHAR SF460000
ENCODING 9576
SWIDTH 960 0
DWIDTH 8 0
BBX 8 8 0 -2
BITMAP
14
14
14
FF
00
00
00
00
ENDCHAR
STARTCHAR SF400000
ENCODING 9577
SWIDTH 960 0
DWIDTH 8 0
BBX 8 8 0 -2
BITMAP
14
14
F7
00
FF
00
00
00
ENDCHAR
STARTCHAR SF540000
ENCODING 9578
SWIDTH 960 0
DWIDTH 8 0
BBX 8 8 0 -2
BITMAP
08
08
FF
08
FF
08
08
08
ENDCHAR
STARTCHAR SF530000
ENCODING 9579
SWIDTH 960 0
DWIDTH 8 0
BBX 8 8 0 -2
BITMAP
14
14
14
FF
14
14
14
14
ENDCHAR
STARTCHAR SF440000
ENCODING 9580
SWIDTH 960 0
DWIDTH 8 0
BBX 8 8 0 -2
BITMAP
14
14
F7
00
F7
14
14
14
ENDCHAR
STARTCHAR dnblock
ENCODING 9604
SWIDTH 960 0
DWIDTH 8 0
BBX 8 8 0 -2
BITMAP
00
00
00
00
FF
FF
FF
FF
ENDCHAR
STARTCHAR block
ENCODING 9608
SWIDTH 960 0
DWIDTH 8 0
BBX 8 8 0 -2
BITMAP
FF
FF
FF
FF
FF
FF
FF
FF
ENDCHAR
STARTCHAR lfblock
ENCODING 9612
SWIDTH 960 0
DWIDTH 8 0
BBX 8 8 0 -2
BITMAP
F0
F0
F0
F0
F0
F0
F0
F0
ENDCHAR
STARTCHAR rtblock
ENCODING 9616
SWIDTH 960 0
DWIDTH 8 0
BBX 8 8 0 -2
BITMAP
0F
0F
0F
0F
0F
0F
0F
0F
ENDCHAR
STARTCHAR ltshade
ENCODING 9617
SWIDTH 960 0
DWIDTH 8 0
BBX 8 8 0 -2
BITMAP
88
22
88
22
88
22
88
22
ENDCHAR
STARTCHAR shade
ENCODING 9618
SWIDTH 960 0
DWIDTH 8 0
BBX 8 8 0 -2
BITMAP
AA
55
AA
55
AA
55
AA
55
ENDCHAR
STARTCHAR dkshade
ENCODING 9619
SWIDTH 960 0
DWIDTH 8 0
BBX 8 8 0 -2
BITMAP
EE
BB
EE
BB
EE
BB
EE
BB
ENDCHAR
STARTCHAR filledbox
ENCODING 9632
SWIDTH 960 0
DWIDTH 8 0
BBX 8 8 0 -2
BITMAP
00
00
3C
3C
3C
3C
00
00
ENDCHAR
STARTCHAR H22073
ENCODING 9633
SWIDTH 960 0
DWIDTH 8 0
BBX 8 8 0 -2
BITMAP
00
7E
42
42
42
42
7E
00
ENDCHAR
STARTCHAR filledrect
ENCODING 9644
SWIDTH 960 0
DWIDTH 8 0
BBX 8 8 0 -2
BITMAP
00
00
7E
7E
7E
00
00
00
ENDCHAR
STARTCHAR triagup
ENCODING 9650
SWIDTH 960 0
DWIDTH 8 0
BBX 8 8 0 -2
BITMAP
00
00
08
1C
3E
3E
00
00
ENDCHAR
STARTCHAR triagrt
ENCODING 9658
SWIDTH 960 0
DWIDTH 8 0
BBX 8 8 0 -2
BITMAP
00
30
38
3C
38
30
00
00
ENDCHAR
STARTCHAR triagdn
ENCODING 9660
SWIDTH 960 0
DWIDTH 8 0
BBX 8 8 0 -2
BITMAP
00
00
3E
3E
1C
08
00
00
ENDCHAR
STARTCHAR triaglf
ENCODING 9668
SWIDTH 960 0
DWIDTH 8 0
BBX 8 8 0 -2
BITMAP
00
0C
1C
3C
1C
0C
00
00
ENDCHAR
STARTCHAR circle
ENCODING 9675
SWIDTH 960 0
DWIDTH 8 0
BBX 8 8 0 -2
BITMAP
00
00
18
24
24
18
00
00
ENDCHAR
STARTCHAR H18533
ENCODING 9679
SWIDTH 960 0
DWIDTH 8 0
BBX 8 8 0 -2
BITMAP
00
00
18
3C
3C
18
00
00
ENDCHAR
STARTCHAR invbullet
ENCODING 9688
SWIDTH 960 0
DWIDTH 8 0
BBX 8 8 0 -2
BITMAP
FF
FF
E7
C3
C3
E7
FF
FF
ENDCHAR
STARTCHAR invcircle
ENCODING 9689
SWIDTH 960 0
DWIDTH 8 0
BBX 8 8 0 -2
BITMAP
FF
FF
E7
DB
DB
E7
FF
FF
ENDCHAR
STARTCHAR smileface
ENCODING 9786
SWIDTH 960 0
DWIDTH 8 0
BBX 8 8 0 -2
BITMAP
3E
41
55
41
5D
41
3E
00
ENDCHAR
STARTCHAR invsmileface
ENCODING 9787
SWIDTH 960 0
DWIDTH 8 0
BBX 8 8 0 -2
BITMAP
3E
7F
6B
7F
63
7F
3E
00
ENDCHAR
STARTCHAR sun
ENCODING 9788
SWIDTH 960 0
DWIDTH 8 0
BBX 8 8 0 -2
BITMAP
49
3E
22
63
22
3E
49
00
ENDCHAR
STARTCHAR female
ENCODING 9792
SWIDTH 960 0
DWIDTH 8 0
BBX 8 8 0 -2
BITMAP
1C
22
22
1C
08
3E
08
08
ENDCHAR
STARTCHAR male
ENCODING 9794
SWIDTH 960 0
DWIDTH 8 0
BBX 8 8 0 -2
BITMAP
0F
03
05
39
44
44
38
00
ENDCHAR
STARTCHAR spade
ENCODING 9824
SWIDTH 960 0
DWIDTH 8 0
BBX 8 8 0 -2
BITMAP
08
1C
3E
7F
77
08
1C
00
ENDCHAR
STARTCHAR uni2662
ENCODING 9826
SWIDTH 960 0
DWIDTH 8 0
BBX 8 8 0 -2
BITMAP
08
14
22
41
22
14
08
00
ENDCHAR
STARTCHAR club
ENCODING 9827
SWIDTH 960 0
DWIDTH 8 0
BBX 8 8 0 -2
BITMAP
00
1C
1C
77
77
08
1C
00
ENDCHAR
STARTCHAR heart
ENCODING 9829
SWIDTH 960 0
DWIDTH 8 0
BBX 8 8 0 -2
BITMAP
00
22
77
7F
3E
1C
08
00
ENDCHAR
STARTCHAR diamond
ENCODING 9830
SWIDTH 960 0
DWIDTH 8 0
BBX 8 8 0 -2
BITMAP
08
1C
3E
7F
3E
1C
08
00
ENDCHAR
STARTCHAR musicalnote
ENCODING 9834
SWIDTH 960 0
DWIDTH 8 0
BBX 8 8 0 -2
BITMAP
08
0C
0A
08
08
18
18
00
ENDCHAR
STARTCHAR musicalnotedbl
ENCODING 9835
SWIDTH 960 0
DWIDTH 8 0
BBX 8 8 0 -2
BITMAP
3E
3E
22
22
22
66
66
00
ENDCHAR
STARTCHAR uniF001
ENCODING 61441
SWIDTH 960 0
DWIDTH 8 0
BBX 8 8 0 -2
BITMAP
0E
10
10
3E
12
12
12
00
ENDCHAR
STARTCHAR uniF002
ENCODING 61442
SWIDTH 960 0
DWIDTH 8 0
BBX 8 8 0 -2
BITMAP
1E
22
22
7A
22
22
22
00
ENDCHAR
STARTCHAR uniFE7C
ENCODING 65148
SWIDTH 960 0
DWIDTH 8 0
BBX 8 8 0 -2
BITMAP
54
28
00
00
00
00
00
00
ENDCHAR
STARTCHAR uniFE7D
ENCODING 65149
SWIDTH 960 0
DWIDTH 8 0
BBX 8 8 0 -2
BITMAP
54
28
00
00
FF
00
00
00
ENDCHAR
STARTCHAR uniFE80
ENCODING 65152
SWIDTH 960 0
DWIDTH 8 0
BBX 8 8 0 -2
BITMAP
00
00
04
08
06
08
00
00
ENDCHAR
STARTCHAR uniFE81
ENCODING 65153
SWIDTH 960 0
DWIDTH 8 0
BBX 8 8 0 -2
BITMAP
14
28
08
08
08
08
00
00
ENDCHAR
STARTCHAR uniFE82
ENCODING 65154
SWIDTH 960 0
DWIDTH 8 0
BBX 8 8 0 -2
BITMAP
50
A8
08
08
07
00
00
00
ENDCHAR
STARTCHAR uniFE83
ENCODING 65155
SWIDTH 960 0
DWIDTH 8 0
BBX 8 8 0 -2
BITMAP
30
68
08
08
08
08
00
00
ENDCHAR
STARTCHAR uniFE84
ENCODING 65156
SWIDTH 960 0
DWIDTH 8 0
BBX 8 8 0 -2
BITMAP
30
68
08
08
07
00
00
00
ENDCHAR
STARTCHAR uniFE85
ENCODING 65157
SWIDTH 960 0
DWIDTH 8 0
BBX 8 8 0 -2
BITMAP
18
30
02
05
03
01
22
1C
ENDCHAR
STARTCHAR uniFE8B
ENCODING 65163
SWIDTH 960 0
DWIDTH 8 0
BBX 8 8 0 -2
BITMAP
00
18
31
01
FE
00
00
00
ENDCHAR
STARTCHAR uniFE8D
ENCODING 65165
SWIDTH 960 0
DWIDTH 8 0
BBX 8 8 0 -2
BITMAP
08
08
08
08
08
08
00
00
ENDCHAR
STARTCHAR uniFE8E
ENCODING 65166
SWIDTH 960 0
DWIDTH 8 0
BBX 8 8 0 -2
BITMAP
08
08
08
08
07
00
00
00
ENDCHAR
STARTCHAR uniFE8F
ENCODING 65167
SWIDTH 960 0
DWIDTH 8 0
BBX 8 8 0 -2
BITMAP
00
00
81
81
7E
00
08
00
ENDCHAR
STARTCHAR uniFE91
ENCODING 65169
SWIDTH 960 0
DWIDTH 8 0
BBX 8 8 0 -2
BITMAP
00
00
01
01
FE
00
10
00
ENDCHAR
STARTCHAR uniFE93
ENCODING 65171
SWIDTH 960 0
DWIDTH 8 0
BBX 8 8 0 -2
BITMAP
0A
00
06
09
07
00
00
00
ENDCHAR
STARTCHAR uniFE95
ENCODING 65173
SWIDTH 960 0
DWIDTH 8 0
BBX 8 8 0 -2
BITMAP
00
14
81
81
7E
00
00
00
ENDCHAR
STARTCHAR uniFE97
ENCODING 65175
SWIDTH 960 0
DWIDTH 8 0
BBX 8 8 0 -2
BITMAP
00
14
01
01
FE
00
00
00
ENDCHAR
STARTCHAR uniFE99
ENCODING 65177
SWIDTH 960 0
DWIDTH 8 0
BBX 8 8 0 -2
BITMAP
08
14
81
81
7E
00
00
00
ENDCHAR
STARTCHAR uniFE9B
ENCODING 65179
SWIDTH 960 0
DWIDTH 8 0
BBX 8 8 0 -2
BITMAP
08
14
01
01
FE
00
00
00
ENDCHAR
STARTCHAR uniFE9D
ENCODING 65181
SWIDTH 960 0
DWIDTH 8 0
BBX 8 8 0 -2
BITMAP
00
00
60
90
3F
40
48
3F
ENDCHAR
STARTCHAR uniFE9F
ENCODING 65183
SWIDTH 960 0
DWIDTH 8 0
BBX 8 8 0 -2
BITMAP
00
00
38
07
F8
00
08
00
ENDCHAR
STARTCHAR uniFEA1
ENCODING 65185
SWIDTH 960 0
DWIDTH 8 0
BBX 8 8 0 -2
BITMAP
00
00
60
90
3F
40
40
3F
ENDCHAR
STARTCHAR uniFEA3
ENCODING 65187
SWIDTH 960 0
DWIDTH 8 0
BBX 8 8 0 -2
BITMAP
00
00
38
07
F8
00
00
00
ENDCHAR
STARTCHAR uniFEA5
ENCODING 65189
SWIDTH 960 0
DWIDTH 8 0
BBX 8 8 0 -2
BITMAP
00
08
60
90
3F
40
40
3F
ENDCHAR
STARTCHAR uniFEA7
ENCODING 65191
SWIDTH 960 0
DWIDTH 8 0
BBX 8 8 0 -2
BITMAP
10
00
38
07
F8
00
00
00
ENDCHAR
STARTCHAR uniFEA9
ENCODING 65193
SWIDTH 960 0
DWIDTH 8 0
BBX 8 8 0 -2
BITMAP
00
02
01
09
0F
00
00
00
ENDCHAR
STARTCHAR uniFEAB
ENCODING 65195
SWIDTH 960 0
DWIDTH 8 0
BBX 8 8 0 -2
BITMAP
08
02
01
09
0F
00
00
00
ENDCHAR
STARTCHAR uniFEAD
ENCODING 65197
SWIDTH 960 0
DWIDTH 8 0
BBX 8 8 0 -2
BITMAP
00
00
00
02
01
01
22
1C
ENDCHAR
STARTCHAR uniFEAF
ENCODING 65199
SWIDTH 960 0
DWIDTH 8 0
BBX 8 8 0 -2
BITMAP
00
08
00
02
01
01
22
1C
ENDCHAR
STARTCHAR uniFEB1
ENCODING 65201
SWIDTH 960 0
DWIDTH 8 0
BBX 8 8 0 -2
BITMAP
00
00
00
25
1A
20
C0
00
ENDCHAR
STARTCHAR uniFEB3
ENCODING 65203
SWIDTH 960 0
DWIDTH 8 0
BBX 8 8 0 -2
BITMAP
00
00
01
25
DA
00
00
00
ENDCHAR
STARTCHAR uniFEB5
ENCODING 65205
SWIDTH 960 0
DWIDTH 8 0
BBX 8 8 0 -2
BITMAP
04
0A
00
25
1A
20
C0
00
ENDCHAR
STARTCHAR uniFEB7
ENCODING 65207
SWIDTH 960 0
DWIDTH 8 0
BBX 8 8 0 -2
BITMAP
08
14
01
25
DA
00
00
00
ENDCHAR
STARTCHAR uniFEB9
ENCODING 65209
SWIDTH 960 0
DWIDTH 8 0
BBX 8 8 0 -2
BITMAP
00
00
06
29
1E
10
E0
00
ENDCHAR
STARTCHAR uniFEBB
ENCODING 65211
SWIDTH 960 0
DWIDTH 8 0
BBX 8 8 0 -2
BITMAP
00
00
06
29
DE
00
00
00
ENDCHAR
STARTCHAR uniFEBD
ENCODING 65213
SWIDTH 960 0
DWIDTH 8 0
BBX 8 8 0 -2
BITMAP
08
00
06
29
1E
10
E0
00
ENDCHAR
STARTCHAR uniFEBF
ENCODING 65215
SWIDTH 960 0
DWIDTH 8 0
BBX 8 8 0 -2
BITMAP
08
00
06
29
DE
00
00
00
ENDCHAR
STARTCHAR uniFEC1
ENCODING 65217
SWIDTH 960 0
DWIDTH 8 0
BBX 8 8 0 -2
BITMAP
10
10
16
19
FE
00
00
00
ENDCHAR
STARTCHAR uniFEC5
ENCODING 65221
SWIDTH 960 0
DWIDTH 8 0
BBX 8 8 0 -2
BITMAP
14
10
16
19
FE
00
00
00
ENDCHAR
STARTCHAR uniFEC9
ENCODING 65225
SWIDTH 960 0
DWIDTH 8 0
BBX 8 8 0 -2
BITMAP
00
18
20
1C
20
40
40
3E
ENDCHAR
STARTCHAR uniFECA
ENCODING 65226
SWIDTH 960 0
DWIDTH 8 0
BBX 8 8 0 -2
BITMAP
00
30
48
30
2F
40
40
3F
ENDCHAR
STARTCHAR uniFECB
ENCODING 65227
SWIDTH 960 0
DWIDTH 8 0
BBX 8 8 0 -2
BITMAP
00
04
0A
08
FF
00
00
00
ENDCHAR
STARTCHAR uniFECC
ENCODING 65228
SWIDTH 960 0
DWIDTH 8 0
BBX 8 8 0 -2
BITMAP
00
18
24
18
F7
00
00
00
ENDCHAR
STARTCHAR uniFECD
ENCODING 65229
SWIDTH 960 0
DWIDTH 8 0
BBX 8 8 0 -2
BITMAP
40
18
20
1C
20
40
40
3E
ENDCHAR
STARTCHAR uniFECE
ENCODING 65230
SWIDTH 960 0
DWIDTH 8 0
BBX 8 8 0 -2
BITMAP
04
30
48
30
2F
40
40
3F
ENDCHAR
STARTCHAR uniFECF
ENCODING 65231
SWIDTH 960 0
DWIDTH 8 0
BBX 8 8 0 -2
BITMAP
10
04
0A
08
FF
00
00
00
ENDCHAR
STARTCHAR uniFED0
ENCODING 65232
SWIDTH 960 0
DWIDTH 8 0
BBX 8 8 0 -2
BITMAP
20
18
24
18
F7
00
00
00
ENDCHAR
STARTCHAR uniFED1
ENCODING 65233
SWIDTH 960 0
DWIDTH 8 0
BBX 8 8 0 -2
BITMAP
08
02
45
83
7E
00
00
00
ENDCHAR
STARTCHAR uniFED3
ENCODING 65235
SWIDTH 960 0
DWIDTH 8 0
BBX 8 8 0 -2
BITMAP
08
02
05
03
FE
00
00
00
ENDCHAR
STARTCHAR uniFED5
ENCODING 65237
SWIDTH 960 0
DWIDTH 8 0
BBX 8 8 0 -2
BITMAP
00
28
02
05
23
41
42
3C
ENDCHAR
STARTCHAR uniFED7
ENCODING 65239
SWIDTH 960 0
DWIDTH 8 0
BBX 8 8 0 -2
BITMAP
28
02
05
03
FE
00
00
00
ENDCHAR
STARTCHAR uniFED9
ENCODING 65241
SWIDTH 960 0
DWIDTH 8 0
BBX 8 8 0 -2
BITMAP
0D
19
41
81
7E
00
00
00
ENDCHAR
STARTCHAR uniFEDB
ENCODING 65243
SWIDTH 960 0
DWIDTH 8 0
BBX 8 8 0 -2
BITMAP
03
0C
02
01
FF
00
00
00
ENDCHAR
STARTCHAR uniFEDD
ENCODING 65245
SWIDTH 960 0
DWIDTH 8 0
BBX 8 8 0 -2
BITMAP
01
01
01
11
21
22
1C
00
ENDCHAR
STARTCHAR uniFEDF
ENCODING 65247
SWIDTH 960 0
DWIDTH 8 0
BBX 8 8 0 -2
BITMAP
01
01
01
01
FE
00
00
00
ENDCHAR
STARTCHAR uniFEE1
ENCODING 65249
SWIDTH 960 0
DWIDTH 8 0
BBX 8 8 0 -2
BITMAP
00
00
06
01
0F
10
08
08
ENDCHAR
STARTCHAR uniFEE3
ENCODING 65251
SWIDTH 960 0
DWIDTH 8 0
BBX 8 8 0 -2
BITMAP
00
00
02
05
F9
06
00
00
ENDCHAR
STARTCHAR uniFEE5
ENCODING 65253
SWIDTH 960 0
DWIDTH 8 0
BBX 8 8 0 -2
BITMAP
00
00
08
21
41
42
3C
00
ENDCHAR
STARTCHAR uniFEE7
ENCODING 65255
SWIDTH 960 0
DWIDTH 8 0
BBX 8 8 0 -2
BITMAP
00
08
01
01
FE
00
00
00
ENDCHAR
STARTCHAR uniFEE9
ENCODING 65257
SWIDTH 960 0
DWIDTH 8 0
BBX 8 8 0 -2
BITMAP
00
00
06
09
07
00
00
00
ENDCHAR
STARTCHAR uniFEEB
ENCODING 65259
SWIDTH 960 0
DWIDTH 8 0
BBX 8 8 0 -2
BITMAP
00
0C
06
0B
FD
06
00
00
ENDCHAR
STARTCHAR uniFEEC
ENCODING 65260
SWIDTH 960 0
DWIDTH 8 0
BBX 8 8 0 -2
BITMAP
00
0C
14
28
FF
28
28
10
ENDCHAR
STARTCHAR uniFEED
ENCODING 65261
SWIDTH 960 0
DWIDTH 8 0
BBX 8 8 0 -2
BITMAP
00
00
02
05
03
01
22
1C
ENDCHAR
STARTCHAR uniFEEF
ENCODING 65263
SWIDTH 960 0
DWIDTH 8 0
BBX 8 8 0 -2
BITMAP
00
03
44
82
81
7E
00
00
ENDCHAR
STARTCHAR uniFEF0
ENCODING 65264
SWIDTH 960 0
DWIDTH 8 0
BBX 8 8 0 -2
BITMAP
00
00
00
00
47
81
7E
00
ENDCHAR
STARTCHAR uniFEF1
ENCODING 65265
SWIDTH 960 0
DWIDTH 8 0
BBX 8 8 0 -2
BITMAP
00
03
44
82
81
7E
00
24
ENDCHAR
STARTCHAR uniFEF2
ENCODING 65266
SWIDTH 960 0
DWIDTH 8 0
BBX 8 8 0 -2
BITMAP
00
00
00
00
47
81
7E
24
ENDCHAR
STARTCHAR uniFEF3
ENCODING 65267
SWIDTH 960 0
DWIDTH 8 0
BBX 8 8 0 -2
BITMAP
00
00
01
01
FE
00
14
00
ENDCHAR
STARTCHAR uniFEF5
ENCODING 65269
SWIDTH 960 0
DWIDTH 8 0
BBX 8 8 0 -2
BITMAP
62
D3
1A
04
0A
1E
00
00
ENDCHAR
STARTCHAR uniFEF6
ENCODING 65270
SWIDTH 960 0
DWIDTH 8 0
BBX 8 8 0 -2
BITMAP
31
69
09
07
3D
00
00
00
ENDCHAR
STARTCHAR uniFEF7
ENCODING 65271
SWIDTH 960 0
DWIDTH 8 0
BBX 8 8 0 -2
BITMAP
52
B3
1A
04
0A
1E
00
00
ENDCHAR
STARTCHAR uniFEF8
ENCODING 65272
SWIDTH 960 0
DWIDTH 8 0
BBX 8 8 0 -2
BITMAP
51
A9
09
07
3D
00
00
00
ENDCHAR
STARTCHAR uniFEFB
ENCODING 65275
SWIDTH 960 0
DWIDTH 8 0
BBX 8 8 0 -2
BITMAP
04
26
34
08
14
3C
00
00
ENDCHAR
STARTCHAR uniFEFC
ENCODING 65276
SWIDTH 960 0
DWIDTH 8 0
BBX 8 8 0 -2
BITMAP
01
11
09
07
3D
00
00
00
ENDCHAR
ENDFONT
